<svg id="Layer_1" data-name="Layer 1" xmlns="http://www.w3.org/2000/svg" xmlns:xlink="http://www.w3.org/1999/xlink" viewBox="0 0 935.61 694.46"><defs><style>.cls-1{fill:#e52421;}.cls-2{fill:#5fbda7;}.cls-3{fill:url(#linear-gradient);}.cls-4{fill:url(#linear-gradient-2);}.cls-5{font-size:100px;fill:#fff;font-family:Comfortaa-Bold, Comfortaa;font-weight:700;}</style><linearGradient id="linear-gradient" y1="400" x2="935.61" y2="400" gradientUnits="userSpaceOnUse"><stop offset="0" stop-color="#bae0e1"/><stop offset="0.83" stop-color="#badfd9"/></linearGradient><linearGradient id="linear-gradient-2" x1="1.32" y1="400" x2="934.29" y2="400" gradientUnits="userSpaceOnUse"><stop offset="0" stop-color="#55bdb9"/><stop offset="0.33" stop-color="#55baa1"/></linearGradient></defs><path class="cls-1" d="M259.73,370.92a2.81,2.81,0,0,1-.55-1.21Z" transform="translate(0 -52.77)"/><path class="cls-1" d="M331.13,430.29l-.3-.09a.81.81,0,0,1,0-.22Z" transform="translate(0 -52.77)"/><path class="cls-1" d="M607.88,427.47l.46.37h0C608.17,427.74,608,427.61,607.88,427.47Z" transform="translate(0 -52.77)"/><path class="cls-1" d="M652.54,380.35a1.6,1.6,0,0,1,0,.23l-.06-.09A.85.85,0,0,0,652.54,380.35Z" transform="translate(0 -52.77)"/><path class="cls-1" d="M654.83,381.43l-.18.33a1.1,1.1,0,0,1-.26,0C654.53,381.62,654.68,381.54,654.83,381.43Z" transform="translate(0 -52.77)"/><path class="cls-1" d="M262.16,373v0l-.07-.07v-.06h0s0,0,0,0A.17.17,0,0,1,262.16,373Z" transform="translate(0 -52.77)"/><path class="cls-1" d="M259.73,370.92a2.81,2.81,0,0,1-.55-1.21Z" transform="translate(0 -52.77)"/><path class="cls-1" d="M331.13,430.29l-.3-.09a.81.81,0,0,1,0-.22Z" transform="translate(0 -52.77)"/><path class="cls-1" d="M262.16,373l-.06-.08s0,0,0,0A.17.17,0,0,1,262.16,373Z" transform="translate(0 -52.77)"/><path class="cls-1" d="M654.83,381.43l-.18.33a1.1,1.1,0,0,1-.26,0C654.53,381.62,654.68,381.54,654.83,381.43Z" transform="translate(0 -52.77)"/><path class="cls-1" d="M652.54,380.35a1.6,1.6,0,0,1,0,.23l-.06-.09A.85.85,0,0,0,652.54,380.35Z" transform="translate(0 -52.77)"/><path class="cls-1" d="M331.13,430.29l-.3-.09a.81.81,0,0,1,0-.22Z" transform="translate(0 -52.77)"/><path class="cls-1" d="M652.54,380.35a1.6,1.6,0,0,1,0,.23l-.06-.09A.85.85,0,0,0,652.54,380.35Z" transform="translate(0 -52.77)"/><path class="cls-1" d="M654.83,381.43l-.18.33a1.1,1.1,0,0,1-.26,0C654.53,381.62,654.68,381.54,654.83,381.43Z" transform="translate(0 -52.77)"/><path class="cls-1" d="M262.16,373v0l-.07-.07v-.06h0s0,0,0,0A.17.17,0,0,1,262.16,373Z" transform="translate(0 -52.77)"/><path class="cls-2" d="M676.42,380a.74.74,0,0,1-.08.13c-.56.93-1.12,1.86-1.7,2.77.47-.81,1-1.61,1.44-2.41.1-.18.2-.35.31-.51Z" transform="translate(0 -52.77)"/><path class="cls-1" d="M262.16,373v0l-.07-.07v-.06h0s0,0,0,0A.17.17,0,0,1,262.16,373Z" transform="translate(0 -52.77)"/><path class="cls-3" d="M807,114.18C745.08,74.41,664.64,67.84,585.4,75.36c-40.24,3.82-80.16,11.27-117.2,19.85-110,25.49-194.49,61.13-285.51,121.1C104.83,267.62,22.19,336.89,3.78,404.9a100.51,100.51,0,0,0-3.5,34.26c2.31,29.52,19.33,58.17,44.52,85,41.66,44.36,105.69,83.67,162.42,113.53,91,47.9,163.25,71.47,247.18,83.16,30.39,4.29,62.28,7,95,6.47,57.88-.95,118.43-12.09,178-42.69,93.32-47.9,183.95-143.51,203.88-259.25C951.25,309.82,900.28,174.35,807,114.18ZM759.44,413c.17-.29.35-.57.63-1l11.44,18.71c7.26,11.88,14.56,23.73,21.77,35.63a37,37,0,0,1-19.61,54.56,37.74,37.74,0,0,1-49-25.57,35.57,35.57,0,0,1,3.61-27.76C738.63,449.33,749.06,431.18,759.44,413Z" transform="translate(0 -52.77)"/><path class="cls-4" d="M585.4,75.36C528.73,60.8,470.49,52.77,415.21,52.77,182,52.77,1.32,195.69,1.32,369.24A264.55,264.55,0,0,0,3.78,404.9c5.39,39.89,19.56,80.54,41,119.24,67.13,121.08,205.65,223.09,370.41,223.09,43.64,0,89.11-7.16,134.21-19.93,196-55.48,384.87-217,384.87-358.06C934.29,236.82,767.89,122.24,585.4,75.36ZM773.67,520.88a37.74,37.74,0,0,1-49-25.57,35.57,35.57,0,0,1,3.61-27.76c10.32-18.22,20.75-36.37,31.13-54.55.17-.29.35-.57.63-1l11.44,18.71c7.26,11.88,14.56,23.73,21.77,35.63A37,37,0,0,1,773.67,520.88Z" transform="translate(0 -52.77)"/><text class="cls-5" transform="translate(155.31 317.31)">Doe sangue<tspan x="82.5" y="120">Doe vida</tspan></text></svg>