<svg id="Layer_1" data-name="Layer 1" xmlns="http://www.w3.org/2000/svg" xmlns:xlink="http://www.w3.org/1999/xlink" viewBox="0 0 935.61 694.46"><defs><style>.cls-1{fill:#e52421;}.cls-2{fill:#5fbda7;}.cls-3{fill:url(#linear-gradient);}.cls-4{fill:url(#linear-gradient-2);}.cls-5{fill:#fff;}</style><linearGradient id="linear-gradient" y1="400" x2="935.61" y2="400" gradientUnits="userSpaceOnUse"><stop offset="0" stop-color="#bae0e1"/><stop offset="0.83" stop-color="#badfd9"/></linearGradient><linearGradient id="linear-gradient-2" x1="1.32" y1="400" x2="934.29" y2="400" gradientUnits="userSpaceOnUse"><stop offset="0" stop-color="#55bdb9"/><stop offset="0.33" stop-color="#55baa1"/></linearGradient></defs><path class="cls-1" d="M259.73,370.92a2.81,2.81,0,0,1-.55-1.21Z" transform="translate(0 -52.77)"/><path class="cls-1" d="M331.13,430.29l-.3-.09a.81.81,0,0,1,0-.22Z" transform="translate(0 -52.77)"/><path class="cls-1" d="M607.88,427.47l.46.37h0C608.17,427.74,608,427.61,607.88,427.47Z" transform="translate(0 -52.77)"/><path class="cls-1" d="M652.54,380.35a1.6,1.6,0,0,1,0,.23l-.06-.09A.85.85,0,0,0,652.54,380.35Z" transform="translate(0 -52.77)"/><path class="cls-1" d="M654.83,381.43l-.18.33a1.1,1.1,0,0,1-.26,0C654.53,381.62,654.68,381.54,654.83,381.43Z" transform="translate(0 -52.77)"/><path class="cls-1" d="M262.16,373v0l-.07-.07v-.06h0s0,0,0,0A.17.17,0,0,1,262.16,373Z" transform="translate(0 -52.77)"/><path class="cls-1" d="M259.73,370.92a2.81,2.81,0,0,1-.55-1.21Z" transform="translate(0 -52.77)"/><path class="cls-1" d="M331.13,430.29l-.3-.09a.81.81,0,0,1,0-.22Z" transform="translate(0 -52.77)"/><path class="cls-1" d="M262.16,373l-.06-.08s0,0,0,0A.17.17,0,0,1,262.16,373Z" transform="translate(0 -52.77)"/><path class="cls-1" d="M654.83,381.43l-.18.33a1.1,1.1,0,0,1-.26,0C654.53,381.62,654.68,381.54,654.83,381.43Z" transform="translate(0 -52.77)"/><path class="cls-1" d="M652.54,380.35a1.6,1.6,0,0,1,0,.23l-.06-.09A.85.85,0,0,0,652.54,380.35Z" transform="translate(0 -52.77)"/><path class="cls-1" d="M331.13,430.29l-.3-.09a.81.81,0,0,1,0-.22Z" transform="translate(0 -52.77)"/><path class="cls-1" d="M652.54,380.35a1.6,1.6,0,0,1,0,.23l-.06-.09A.85.85,0,0,0,652.54,380.35Z" transform="translate(0 -52.77)"/><path class="cls-1" d="M654.83,381.43l-.18.33a1.1,1.1,0,0,1-.26,0C654.53,381.62,654.68,381.54,654.83,381.43Z" transform="translate(0 -52.77)"/><path class="cls-1" d="M262.16,373v0l-.07-.07v-.06h0s0,0,0,0A.17.17,0,0,1,262.16,373Z" transform="translate(0 -52.77)"/><path class="cls-2" d="M676.42,380a.74.74,0,0,1-.08.13c-.56.93-1.12,1.86-1.7,2.77.47-.81,1-1.61,1.44-2.41.1-.18.2-.35.31-.51Z" transform="translate(0 -52.77)"/><path class="cls-1" d="M262.16,373v0l-.07-.07v-.06h0s0,0,0,0A.17.17,0,0,1,262.16,373Z" transform="translate(0 -52.77)"/><path class="cls-3" d="M807,114.18C745.08,74.41,664.64,67.84,585.4,75.36c-40.24,3.82-80.16,11.27-117.2,19.85-110,25.49-194.49,61.13-285.51,121.1C104.83,267.62,22.19,336.89,3.78,404.9a100.51,100.51,0,0,0-3.5,34.26c2.31,29.52,19.33,58.17,44.52,85,41.66,44.36,105.69,83.67,162.42,113.53,91,47.9,163.25,71.47,247.18,83.16,30.39,4.29,62.28,7,95,6.47,57.88-.95,118.43-12.09,178-42.69,93.32-47.9,183.95-143.51,203.88-259.25C951.25,309.82,900.28,174.35,807,114.18Zm-33.3,406.7a37.74,37.74,0,0,1-49-25.57,35.57,35.57,0,0,1,3.61-27.76c10.32-18.22,20.75-36.37,31.13-54.55.17-.29.35-.57.63-1l11.44,18.71c7.26,11.88,14.56,23.73,21.77,35.63A37,37,0,0,1,773.67,520.88Z" transform="translate(0 -52.77)"/><path class="cls-4" d="M585.4,75.36C528.73,60.8,470.49,52.77,415.21,52.77,182,52.77,1.32,195.69,1.32,369.24A264.55,264.55,0,0,0,3.78,404.9c5.39,39.89,19.56,80.54,41,119.24,67.13,121.08,205.65,223.09,370.41,223.09,43.64,0,89.11-7.16,134.21-19.93,196-55.48,384.87-217,384.87-358.06C934.29,236.82,767.89,122.24,585.4,75.36ZM773.67,520.88a37.74,37.74,0,0,1-49-25.57,35.57,35.57,0,0,1,3.61-27.76c10.32-18.22,20.75-36.37,31.13-54.55.17-.29.35-.57.63-1l11.44,18.71c7.26,11.88,14.56,23.73,21.77,35.63A37,37,0,0,1,773.67,520.88Z" transform="translate(0 -52.77)"/><path class="cls-5" d="M773.67,520.88a37.74,37.74,0,0,1-49-25.57,35.57,35.57,0,0,1,3.61-27.76c10.32-18.22,20.75-36.37,31.13-54.55.17-.29.35-.57.63-1l11.44,18.71c7.26,11.88,14.56,23.73,21.77,35.63A37,37,0,0,1,773.67,520.88Z" transform="translate(0 -52.77)"/><path class="cls-5" d="M309.41,444.57c-2.31-18.34-16.8-31.77-35.25-32.48-6.91-.27-13.84-.11-20.75-.13-3.67,0-5.6,1.94-5.6,5.65v66.81c0,3.66,2,5.66,5.6,5.66,5.68,0,11.36.05,17,0a55.53,55.53,0,0,0,7.52-.48c11.34-1.72,20.28-7.29,26.27-17.17C309.45,463.82,310.65,454.4,309.41,444.57ZM295,468.15a26.25,26.25,0,0,1-21.61,12.56c-5,.27-10,.05-15.06.05V420.93c6.38.28,12.77-.05,18.94,1,11.6,1.92,20.12,11.13,22,22.76C300.57,453,299.68,461,295,468.15Z" transform="translate(0 -52.77)"/><path class="cls-5" d="M226.84,324.07a36.52,36.52,0,0,0-35.08-32c-7-.27-14-.11-21-.13-3.47,0-5.44,2-5.44,5.42v67.3c0,3.34,2,5.4,5.36,5.4,5.8,0,11.6.05,17.39,0a52.63,52.63,0,0,0,7.53-.5c12-1.9,21.18-8,27-18.73C227.2,342.45,228.1,333.41,226.84,324.07Zm-12.62,21c-5.1,10.29-13.62,15.46-25.07,15.74-4,.1-8.08,0-12.12,0-.39,0-.78,0-1.23-.07V301.36c.11-.06.18-.13.24-.12,5.36.05,10.74-.19,16.06.22a26.93,26.93,0,0,1,24.09,20.68C218.12,330,217.84,337.77,214.22,345.08Z" transform="translate(0 -52.77)"/><path class="cls-5" d="M643.78,341.74c-.15-9-3.61-16.39-10.95-21.74-5.86-4.28-12.54-5.57-19.66-4.9-8.94.85-15.92,5-20.62,12.67-3.63,6-4.35,12.51-3.62,19.31,1.3,12.13,10.22,22.69,23.67,23.39,6.14.32,11.68-1.17,16.27-5.37,1.82-1.67,3.35-3.67,5-5.53a1.46,1.46,0,0,1,.07.41c0,2.28,0,4.57-.16,6.83-.42,4.81-2.1,9.14-5.73,12.44-7.74,7.05-21.05,5.71-27.84-2.72a5,5,0,0,0-7.33-.9c-2.13,1.77-2.21,4.44-.06,6.84,8.21,9.18,18.58,12,30.32,9.48,12.16-2.64,20.57-13.79,20.64-26.58C643.85,357.49,643.92,349.61,643.78,341.74Zm-18.06,17.12c-9.2,5.76-24.42,2.33-26.88-12.42-1-6.09,0-11.85,4.25-16.62,4.81-5.44,11-6.89,17.88-5.22s10.69,6.24,12.37,12.84A36,36,0,0,1,634,342C633.86,349.49,631.62,355.18,625.72,358.86Z" transform="translate(0 -52.77)"/><path class="cls-5" d="M621.33,429.5c0-4.2,0-8.4,0-12.6a4.64,4.64,0,0,0-4.06-4.85c-3.67-.55-6.19,1.56-6.2,5.28,0,8.31,0,16.63,0,24.95v1.58l-.78-.83a24.87,24.87,0,0,0-35-1.87c-7.76,7-10.26,16-8.78,26,2.83,19.25,22.79,28.4,39.24,20.68,10.18-4.78,15.29-13.35,15.51-24.54S621.33,440.77,621.33,429.5Zm-14.6,46.24c-8.73,9.85-25,6.55-29.44-6a57.68,57.68,0,0,1-1.56-7c.25-9.16,5.89-16.53,14.32-18.41a17.6,17.6,0,0,1,21.25,15.39C611.93,465.73,610.77,471.19,606.73,475.74Z" transform="translate(0 -52.77)"/><path class="cls-5" d="M691.64,462.06a28.77,28.77,0,0,0-.26-3.46A27.09,27.09,0,0,0,666.46,435c-8.1-.52-15.26,1.63-21.28,7.16-10,9.2-10.67,23.77-5.8,33.92a25,25,0,0,0,38.35,8.94c1.23-1,2.33-2.15,3.64-3.37,0,1.36,0,2.52,0,3.68a4.94,4.94,0,0,0,3.53,4.64,5.1,5.1,0,0,0,6.73-5Q691.69,473.52,691.64,462.06ZM671.32,480a17.68,17.68,0,0,1-19.8-3.8c-7.54-7.75-6.79-21.61,1.53-28.28a17.53,17.53,0,0,1,28.31,10.57c.22,1.25.33,2.53.43,3.39C681.91,470.15,678.09,476.89,671.32,480Z" transform="translate(0 -52.77)"/><path class="cls-5" d="M508.11,342a26.65,26.65,0,0,0-8.36-19.51C494,316.94,487,314.61,479.09,315a26.07,26.07,0,0,0-18.69,8.52c-7.68,8.38-9.11,18.27-6,28.84a25.06,25.06,0,0,0,43.36,9.26c.06.53.1.8.11,1.06,0,.8,0,1.6,0,2.4A4.92,4.92,0,0,0,503,370.2a4.86,4.86,0,0,0,5.09-5.05C508.15,357.44,508.2,349.72,508.11,342Zm-19.9,17.74c-11,5.38-24.17-2.26-25.24-14.5-.58-6.54,1-12.34,6-16.84,10-9,25.87-3.74,28.77,9.49.35,1.59.45,3.24.6,4.35C498.05,350.3,495.17,356.35,488.21,359.75Z" transform="translate(0 -52.77)"/><path class="cls-5" d="M354.5,346.31c3,0,4.83-1.82,4.72-4.82a41.56,41.56,0,0,0-.69-6.78c-1.59-7.84-5.59-14-13-17.48a26.76,26.76,0,0,0-14.4-2.12c-8.34.85-14.95,4.65-19.52,11.73-3.75,5.81-4.78,12.28-4.17,19.07A25.42,25.42,0,0,0,316.7,364c7.15,5.9,15.46,7.53,24.43,6A28.35,28.35,0,0,0,354,364.36a3.48,3.48,0,0,0,1.26-4.36,4.68,4.68,0,0,0-5.61-2.94,9.74,9.74,0,0,0-2.56,1.23c-6.77,4.21-13.78,4.9-20.95,1.23-5.3-2.73-8.36-7.24-9.52-13.2h24.7C345.7,346.32,350.1,346.34,354.5,346.31Zm-25.65-22c4.28-1.1,8.58-1.17,12.62.89,5.21,2.66,7.56,7.3,8.49,13h-33.1A16.38,16.38,0,0,1,328.85,324.29Z" transform="translate(0 -52.77)"/><path class="cls-5" d="M771.44,346.31c3.17,0,5.09-1.92,4.91-5a47.71,47.71,0,0,0-.7-6.43c-1.47-7.57-5.25-13.6-12.23-17.25a26.27,26.27,0,0,0-15-2.51c-8.68.84-15.45,4.85-20,12.32-3.54,5.78-4.45,12.16-3.79,18.81a25.56,25.56,0,0,0,9.66,18.1c6.54,5.23,14.14,6.91,22.32,5.9A29.21,29.21,0,0,0,771,364.46a3.74,3.74,0,0,0,.62-5.75c-1.77-2.18-4.48-2.42-7.08-.67a20.56,20.56,0,0,1-17,3.16c-7.12-1.75-12.86-7.95-13.68-14.88h1.42Q753.32,346.32,771.44,346.31Zm-31-19.34c5.65-4.31,14.82-4.55,20.24-.51A16.93,16.93,0,0,1,767,338.13H733.85A17.65,17.65,0,0,1,740.41,327Z" transform="translate(0 -52.77)"/><path class="cls-5" d="M437.32,466.31a4.29,4.29,0,0,0,4.39-4.54,40.18,40.18,0,0,0-.36-5.26c-1-6.77-3.73-12.6-9.29-16.86a23.73,23.73,0,0,0-14-4.69c-6.19-.23-12,1.06-17.13,4.71-7.62,5.44-10.95,13.11-11.17,22.26-.22,8.88,2.68,16.49,9.65,22.26a27.87,27.87,0,0,0,17.26,6.28,30.27,30.27,0,0,0,19.75-6.11,3.61,3.61,0,0,0,.74-5.38c-1.69-2.37-4.58-2.78-7.21-1a20.87,20.87,0,0,1-16.06,3.47c-7.49-1.39-13.82-7.79-14.73-15.13h34.53C434.92,466.32,436.12,466.36,437.32,466.31Zm-38.06-8.18c1.09-5.45,3.65-9.8,8.58-12.43a18,18,0,0,1,14-1.37c5.65,1.69,8.69,5.93,10.18,11.44.2.73.31,1.48.49,2.36Z" transform="translate(0 -52.77)"/><path class="cls-5" d="M373.75,448.1c-5.95-9.83-15-13.75-26.17-13.05-9.77.62-17.26,5.15-22,13.79-3.12,5.66-3.8,11.82-3,18.14,1.19,9.25,5.84,16.21,14.14,20.55,5.64,3,11.72,3.49,18,2.63a25.39,25.39,0,0,0,15.33-7.7c5.26-5.49,7.44-12.17,7.43-20.91A26,26,0,0,0,373.75,448.1Zm-14,30.5c-9.22,6.18-25.07,2.69-27.33-12.51-.78-5.23,0-10.25,3-14.66,4.4-6.27,10.65-8.38,18-7.09s11.64,6,13.51,13a37,37,0,0,1,.69,4.61C367.48,469.3,365.35,474.85,359.73,478.6Z" transform="translate(0 -52.77)"/><path class="cls-5" d="M291.24,328.07c-5.7-9.45-14.35-13.42-25.12-13.1-8.39.26-15.52,3.41-20.67,10.19-6.17,8.14-7.1,17.34-4.28,26.87,3.37,11.42,13.63,18.49,26.13,18.49.4,0,.81,0,1.2,0,.84-.05,1.68-.11,2.51-.19a26,26,0,0,0,16.52-7.88,26.83,26.83,0,0,0,7.38-18.12C295.16,338.59,294.24,333.05,291.24,328.07ZM283,352.18c-3.3,6.26-8.66,9.14-13.93,9.26-11,0-18.24-6.62-19.21-15.87a20.87,20.87,0,0,1,2.33-12.86,17.13,17.13,0,0,1,17.28-8.61c8.74,1.11,14.66,7.28,15.52,16.09A20.71,20.71,0,0,1,283,352.18Z" transform="translate(0 -52.77)"/><path class="cls-5" d="M574.6,365.11a4.82,4.82,0,0,1-3.28,4.8,5.32,5.32,0,0,1-5.79-1.49,5.48,5.48,0,0,1-1.16-3.8c0-8.08,0-16.16,0-24.24a23.57,23.57,0,0,0-.72-5.8,12.89,12.89,0,0,0-9.3-9.61c-5.89-1.7-11.5-1.16-16.42,2.83a11.29,11.29,0,0,0-4.37,9.2v28.07a4.68,4.68,0,0,1-2.69,4.59,5.3,5.3,0,0,1-5.57-.45,4.82,4.82,0,0,1-2-4.15q0-22.26,0-44.52a4.86,4.86,0,0,1,5.07-5.18c3.19,0,5.11,1.88,5.2,5.13,0,.22,0,.43,0,.43,2.4-1.41,4.68-3.22,7.28-4.17,9.45-3.47,18.44-2.63,26.28,4.13,4.39,3.78,6.49,8.92,7.19,14.62a46.11,46.11,0,0,1,.29,5.26Q574.65,352.94,574.6,365.11Z" transform="translate(0 -52.77)"/><path class="cls-5" d="M709.2,320q0,22.68,0,45.35a4.75,4.75,0,0,1-4.36,4.75c-3,.25-5.3-1.34-5.76-4-.1-.55-.14-1.11-.23-1.89a22.24,22.24,0,0,1-9,5.3c-7.06,2-14,1.63-20.44-2s-9.89-9.37-11-16.54a47.07,47.07,0,0,1-.49-6.92c0-7.8,0-15.6,0-23.4,0-3.63,2.6-5.83,6.11-5.28a4.86,4.86,0,0,1,4.15,5.08c0,8-.07,16.08.06,24.12a25.32,25.32,0,0,0,1.09,7.41c1.89,5.76,7.05,9.12,13.72,9.37,5.46.2,10.18-1.39,13.65-5.83a10.71,10.71,0,0,0,2.3-6.79q0-13.74,0-27.48a9.52,9.52,0,0,1,.33-2.72c.74-2.4,3.12-3.59,6-3.15A4.62,4.62,0,0,1,709.2,320Z" transform="translate(0 -52.77)"/><path class="cls-5" d="M434.47,367.7c-3.78,2-7.75,2.82-14.12,2.82a34.47,34.47,0,0,1-18.54-5.47,18,18,0,0,1-2.07-1.62c-2.23-2-2.46-4.82-.61-6.9,2.18-2.44,5.49-2.82,7.66-.68a19.32,19.32,0,0,0,11.83,5.46,20.82,20.82,0,0,0,9.24-.85,7.31,7.31,0,0,0,4.67-3.85c1.09-2.44.26-5.08-2.22-6.95s-5.68-2.68-8.77-3.32c-4.27-.87-8.54-1.74-12.49-3.66s-7.32-4.76-8.47-9.36c-1.61-6.42,1.18-12.22,7.37-15.44A27.75,27.75,0,0,1,422,315a28.38,28.38,0,0,1,12.47,3,19.85,19.85,0,0,1,6.06,4.82c1.47,1.76,1.74,3.61.78,5.18a4.44,4.44,0,0,1-5,1.87,9,9,0,0,1-3.58-1.76c-3.6-3.36-7.93-4.36-12.61-4.12a26.9,26.9,0,0,0-6.52,1.28,4.52,4.52,0,0,0-3.47,4.28,5.28,5.28,0,0,0,2.83,5.16,31.84,31.84,0,0,0,9.32,3c4.38.93,8.73,1.94,12.73,4.06s7.16,5.24,7.82,10.08A15,15,0,0,1,434.47,367.7Z" transform="translate(0 -52.77)"/><path class="cls-5" d="M528.23,442.22q-10.53,22.25-21.08,44.47c-.95,2-2.38,3.35-4.68,3.33-2.45,0-3.94-1.5-4.93-3.6l-7.23-15.26q-6.78-14.28-13.55-28.55c-1.38-2.91-.63-5.23,2.17-6.58,2.56-1.23,5.06-.23,6.36,2.58q8.16,17.58,16.32,35.19c.23.49.48,1,.8,1.64L508.58,462l10.74-23.39a4.71,4.71,0,0,1,5.15-3C528,436,529.73,439,528.23,442.22Z" transform="translate(0 -52.77)"/><path class="cls-5" d="M550.05,445.19q0,19.79,0,39.59a5.06,5.06,0,0,1-6.94,5,5,5,0,0,1-3.33-5V462.6q0-11,0-22c0-3.32,2.05-5.32,5.32-5.28a4.76,4.76,0,0,1,4.95,4.91C550.09,441.91,550.05,443.55,550.05,445.19Z" transform="translate(0 -52.77)"/><path class="cls-5" d="M551.53,420a6.62,6.62,0,1,1-6.6-6.76A6.59,6.59,0,0,1,551.53,420Z" transform="translate(0 -52.77)"/></svg>