<?xml version="1.0" encoding="utf-8"?>
<!-- Generator: Adobe Illustrator 26.0.1, SVG Export Plug-In . SVG Version: 6.00 Build 0)  -->
<svg version="1.1" id="Camada_1" xmlns="http://www.w3.org/2000/svg" xmlns:xlink="http://www.w3.org/1999/xlink" x="0px" y="0px"
	 viewBox="0 0 448 229.8" style="enable-background:new 0 0 448 229.8;" xml:space="preserve">
<style type="text/css">
	.st0{clip-path:url(#SVGID_00000160874794420546458090000016850314099665196454_);}
	.st1{fill:none;}
	.st2{fill:url(#SVGID_00000042712312504269166680000006453767986951186070_);}
</style>
<g id="Camada_2_00000109007484074617630210000009601842669719758261_">
	<g id="Camada_1-2">
		<g>
			<defs>
				<rect id="SVGID_1_" width="448" height="229.8"/>
			</defs>
			<clipPath id="SVGID_00000092425212856185565860000003545796910330246060_">
				<use xlink:href="#SVGID_1_"  style="overflow:visible;"/>
			</clipPath>
			<g style="clip-path:url(#SVGID_00000092425212856185565860000003545796910330246060_);">
				<rect class="st1" width="1920" height="1080"/>
				
					<linearGradient id="SVGID_00000129919407630257829920000013643289616887221642_" gradientUnits="userSpaceOnUse" x1="-569.77" y1="1843.228" x2="-714.11" y2="3286.6179" gradientTransform="matrix(1 0 0 -1 1200.8101 2217.73)">
					<stop  offset="0" style="stop-color:#1D7B74"/>
					<stop  offset="0" style="stop-color:#1D7B64"/>
				</linearGradient>
				<path style="fill:url(#SVGID_00000129919407630257829920000013643289616887221642_);" d="M-539.6,420.5
					c164.7-73.2,325-104.3,487.8-175.2S299.8,107,437.4-4.8c157.4-82.4,300.4-183.3,450-256.9s288.9-116.9,447.6-184.5
					S1673.2-591,1839.3-667s410.2-196.3,492.3-235.6l-155.5-333.5c-75,33.6-285.8,122.2-449.7,201.8S1364.2-837,1192.8-758.8
					s-336.8,127.3-494.4,194s-302.3,132-451.1,206.2S-27.2-196.5-194.6-119.5S-589.3,26.7-757,103.1s-369.9,196.2-443.8,235.5
					l155.5,333.5C-961,630.1-704.3,493.7-539.6,420.5z"/>
				<rect class="st1" width="1920" height="2220.4"/>
			</g>
		</g>
	</g>
</g>
</svg>
