<?xml version="1.0" encoding="utf-8"?>
<!-- Generator: Adobe Illustrator 24.1.2, SVG Export Plug-In . SVG Version: 6.00 Build 0)  -->
<svg version="1.1" id="Camada_1" xmlns="http://www.w3.org/2000/svg" xmlns:xlink="http://www.w3.org/1999/xlink" x="0px" y="0px"
	 viewBox="0 0 100 100" style="enable-background:new 0 0 100 100;" xml:space="preserve">
<style type="text/css">
	.st0{fill:#FFFFFF;}
</style>
<g>
	<path d="M92.77,59.43c-2.31,4.06-5.29,7.18-10.44,6.83c-4.8-0.34-8.64-4.11-9.12-8.76c-0.51-4.98,2.41-8.9,8.04-10.76
		c1-5.59-1.7-10.57-6.48-11.96c-4.18-1.22-8.88,1.22-10.41,5.69c-0.62,1.81-0.81,3.84-0.84,5.77c-0.13,8.94,0.05,17.89-0.22,26.82
		c-0.29,9.43-8.21,17.1-17.23,17.11c-9.13,0.01-16.94-7.82-17.37-17.38c-0.05-1.09-0.11-2.17-0.17-3.38
		c-3.47-1.01-4.23-3.79-4.23-6.89c0-1.72-0.37-2.66-2.22-3.33c-7.44-2.69-13.96-10.24-12.9-20.4c0.73-0.28,1.57-0.61,2.58-1.01
		c0-5.23,0.03-10.46-0.01-15.69c-0.03-3.9,0.97-7.1,5.07-8.56c0.55-0.2,0.96-0.83,1.41-1.29c2.11-2.19,4.44-2.5,6.26-0.71
		c1.82,1.8,2.03,3.8,0.34,5.82c-1.68,2-4.04,2-6.3,0.05c-0.31-0.27-0.57-0.61-1.42-1.53c-0.85,1.63-2.07,2.92-2.12,4.25
		c-0.22,5.87-0.09,11.76-0.09,17.88c1.29,0.17,2.44,0.33,3.58,0.48c2.24,10.11,6.15,14.29,12.81,13.69
		c7.16-0.64,10.67-4.75,11.38-13.6c2.49,0.07,2.61-1.59,2.56-3.62c-0.13-4.69,0.06-9.38-0.15-14.06c-0.07-1.54-0.98-3.03-1.67-5.01
		c-1.42,1.13-2.09,1.79-2.88,2.28c-1.98,1.22-3.82,0.82-5.26-0.87c-1.57-1.84-1.45-3.86,0.22-5.58c1.57-1.61,3.45-1.77,5.32-0.45
		c1.56,1.11,3.45,2.04,4.49,3.53c1.35,1.94,2.61,4.31,2.83,6.6c0.43,4.65,0.04,9.37,0.22,14.05c0.05,1.2,0.99,2.36,1.94,3.4
		c1.35,8.9-3.13,16.52-11.69,20.07c-1.92,0.79-3.02,1.51-2.91,3.89c0.14,2.96-0.8,5.65-4.08,6.56
		c-0.72,10.91,6.64,18.74,16.45,17.64c7.29-0.82,12.54-7.61,12.65-16.6c0.1-8.83-0.02-17.67,0.06-26.5
		c0.05-5.31,3.34-9.97,7.98-11.66c7.04-2.57,14.95,2.62,15.5,10.36c0.19,2.65,0.62,4.31,3.5,5.61c2.15,0.98,3.41,3.93,5.06,6.01
		C92.77,55.94,92.77,57.69,92.77,59.43z M15.81,41.28c-1.26,0-2.4,0-3.54,0c-0.03,10.13,8.54,17.07,19.84,16.26
		c9-0.64,16.48-8.57,14.95-16.55c-0.89,0.76-1.71,1.65-1.93,2.67c-1.43,6.64-6.61,11-13.67,11.36c-6.96,0.36-12.86-3.55-14.82-9.89
		C16.26,43.91,16.09,42.62,15.81,41.28z M89.77,56.48c0.02-3.73-3.14-6.91-6.83-6.86c-3.59,0.04-6.59,3.04-6.65,6.67
		c-0.07,3.8,2.93,6.99,6.62,7.05C86.56,63.39,89.75,60.2,89.77,56.48z M26.95,60.85c0.5,1.88,0.63,3.62,1.46,4.91
		c0.34,0.52,2.91,0.49,3.23-0.04c0.8-1.31,0.88-3.06,1.31-4.87C30.83,60.85,29.34,60.85,26.95,60.85z"/>
	<path class="st0" d="M15.81,41.28c0.28,1.33,0.46,2.62,0.83,3.85c1.96,6.34,7.85,10.25,14.82,9.89
		c7.06-0.36,12.24-4.73,13.67-11.36c0.22-1.02,1.04-1.91,1.93-2.67c1.53,7.99-5.95,15.91-14.95,16.55
		c-11.31,0.81-19.87-6.14-19.84-16.26C13.41,41.28,14.55,41.28,15.81,41.28z"/>
	<path class="st0" d="M89.77,56.48c-0.02,3.72-3.21,6.91-6.86,6.86c-3.69-0.05-6.69-3.25-6.62-7.05c0.07-3.63,3.06-6.63,6.65-6.67
		C86.62,49.58,89.78,52.75,89.77,56.48z M87.23,56.49c-0.36-2.4-1.51-4.15-4.13-4.19c-2.56-0.04-4.02,1.44-4.21,3.98
		c-0.18,2.44,1.78,4.5,4.17,4.38C85.65,60.54,86.86,58.91,87.23,56.49z"/>
	<path class="st0" d="M26.95,60.85c2.38,0,3.87,0,6,0c-0.43,1.82-0.51,3.56-1.31,4.87c-0.32,0.53-2.89,0.56-3.23,0.04
		C27.58,64.47,27.45,62.73,26.95,60.85z"/>
	<path d="M87.23,56.49c-0.36,2.42-1.57,4.05-4.17,4.18c-2.39,0.12-4.35-1.94-4.17-4.38c0.19-2.55,1.65-4.02,4.21-3.98
		C85.72,52.34,86.87,54.09,87.23,56.49z"/>
</g>
</svg>
