<svg width="50" height="50" viewBox="0 0 50 50" fill="none" xmlns="http://www.w3.org/2000/svg">
<path d="M44.4444 8.3335H5.55556C4.81884 8.3335 4.11231 8.62615 3.59137 9.14709C3.07044 9.66802 2.77778 10.3746 2.77778 11.1113V38.889C2.77778 39.6258 3.07044 40.3323 3.59137 40.8532C4.11231 41.3742 4.81884 41.6668 5.55556 41.6668H44.4444C45.1812 41.6668 45.8877 41.3742 46.4086 40.8532C46.9296 40.3323 47.2222 39.6258 47.2222 38.889V11.1113C47.2222 10.3746 46.9296 9.66802 46.4086 9.14709C45.8877 8.62615 45.1812 8.3335 44.4444 8.3335ZM42.3056 38.889H7.86111L17.5833 28.8335L15.5833 26.9029L5.55556 37.2779V13.2224L22.8194 30.4029C23.3399 30.9203 24.0439 31.2107 24.7778 31.2107C25.5116 31.2107 26.2157 30.9203 26.7361 30.4029L44.4444 12.7918V37.0974L34.2222 26.8752L32.2639 28.8335L42.3056 38.889ZM7.375 11.1113H42.1944L24.7778 28.4307L7.375 11.1113Z" fill="black"/>
</svg>
