<?xml version="1.0" encoding="utf-8"?>
<!-- Generator: Adobe Illustrator 24.1.2, SVG Export Plug-In . SVG Version: 6.00 Build 0)  -->
<svg version="1.1" id="Camada_1" xmlns="http://www.w3.org/2000/svg" xmlns:xlink="http://www.w3.org/1999/xlink" x="0px" y="0px"
	 viewBox="0 0 100 100" style="enable-background:new 0 0 100 100;" xml:space="preserve">
<style type="text/css">
	.st0{fill:#FFFFFF;}
</style>
<g>
	<path class="st0" d="M91.9,57.9c-2.3,4.1-5.3,7.2-10.4,6.8c-4.8-0.3-8.6-4.1-9.1-8.8c-0.5-5,2.4-8.9,8-10.8c1-5.6-1.7-10.6-6.5-12
		c-4.2-1.2-8.9,1.2-10.4,5.7c-0.6,1.8-0.8,3.8-0.8,5.8c-0.1,8.9,0,17.9-0.2,26.8c-0.3,9.4-8.2,17.1-17.2,17.1
		c-9.1,0-16.9-7.8-17.4-17.4c0-1.1-0.1-2.2-0.2-3.4c-3.5-1-4.2-3.8-4.2-6.9c0-1.7-0.4-2.7-2.2-3.3C13.7,55,7.2,47.4,8.3,37.2
		c0.7-0.3,1.6-0.6,2.6-1c0-5.2,0-10.5,0-15.7c0-3.9,1-7.1,5.1-8.6c0.5-0.2,1-0.8,1.4-1.3c2.1-2.2,4.4-2.5,6.3-0.7
		c1.8,1.8,2,3.8,0.3,5.8c-1.7,2-4,2-6.3,0.1c-0.3-0.3-0.6-0.6-1.4-1.5c-0.9,1.6-2.1,2.9-2.1,4.2C13.9,24.4,14,30.3,14,36.5
		c1.3,0.2,2.4,0.3,3.6,0.5c2.2,10.1,6.1,14.3,12.8,13.7C37.5,50,41,45.9,41.8,37c2.5,0.1,2.6-1.6,2.6-3.6c-0.1-4.7,0.1-9.4-0.2-14.1
		c-0.1-1.5-1-3-1.7-5c-1.4,1.1-2.1,1.8-2.9,2.3c-2,1.2-3.8,0.8-5.3-0.9c-1.6-1.8-1.5-3.9,0.2-5.6c1.6-1.6,3.5-1.8,5.3-0.4
		c1.6,1.1,3.5,2,4.5,3.5c1.3,1.9,2.6,4.3,2.8,6.6c0.4,4.6,0,9.4,0.2,14c0,1.2,1,2.4,1.9,3.4c1.3,8.9-3.1,16.5-11.7,20.1
		c-1.9,0.8-3,1.5-2.9,3.9c0.1,3-0.8,5.6-4.1,6.6C30,78.7,37.3,86.6,47.1,85.5c7.3-0.8,12.5-7.6,12.7-16.6c0.1-8.8,0-17.7,0.1-26.5
		c0-5.3,3.3-10,8-11.7c7-2.6,14.9,2.6,15.5,10.4c0.2,2.7,0.6,4.3,3.5,5.6c2.2,1,3.4,3.9,5.1,6C91.9,54.4,91.9,56.1,91.9,57.9z
		 M14.9,39.7c-1.3,0-2.4,0-3.5,0c0,10.1,8.5,17.1,19.8,16.3c9-0.6,16.5-8.6,15-16.5c-0.9,0.8-1.7,1.7-1.9,2.7
		c-1.4,6.6-6.6,11-13.7,11.4c-7,0.4-12.9-3.5-14.8-9.9C15.4,42.4,15.2,41.1,14.9,39.7z M88.9,54.9c0-3.7-3.1-6.9-6.8-6.9
		c-3.6,0-6.6,3-6.7,6.7c-0.1,3.8,2.9,7,6.6,7C85.7,61.8,88.8,58.7,88.9,54.9z M26,59.3c0.5,1.9,0.6,3.6,1.5,4.9
		c0.3,0.5,2.9,0.5,3.2,0c0.8-1.3,0.9-3.1,1.3-4.9C29.9,59.3,28.4,59.3,26,59.3z"/>
	<path class="st0" d="M86.3,54.9c-0.4,2.4-1.6,4-4.2,4.2c-2.4,0.1-4.3-1.9-4.2-4.4c0.2-2.5,1.7-4,4.2-4C84.8,50.8,86,52.5,86.3,54.9
		z"/>
</g>
</svg>
