<?xml version="1.0" encoding="utf-8"?>
<!-- Generator: Adobe Illustrator 24.1.2, SVG Export Plug-In . SVG Version: 6.00 Build 0)  -->
<svg version="1.1" id="Camada_1" xmlns="http://www.w3.org/2000/svg" xmlns:xlink="http://www.w3.org/1999/xlink" x="0px" y="0px"
	 viewBox="0 0 100 100" style="enable-background:new 0 0 100 100;" xml:space="preserve">
<style type="text/css">
	.st0{fill:#FFFFFF;}
</style>
<g>
	<path class="st0" d="M82.5,46.3c2.3,0,4.2,2.5,4.2,5.5c0,7.1-4.4,12.9-9.9,12.9h-2.2c0.6-1.2,1.1-2.4,1.6-3.7h2
		c3.1,0,5.6-3.3,5.7-7.4c0-2-1.3-3.7-2.8-3.7h-2.8c0-0.3,0-0.6,0-0.9v-2.8H82.5z M90.9,73.9H67.1c2-1.5,3.8-3.3,5.3-5.5h4.4
		c7,0,12.7-7.4,12.7-16.6c0-5.1-3.2-9.2-7.1-9.2h-4.2v-3.7c0-1-0.6-1.8-1.4-1.8H35.9c-0.8,0-1.4,0.8-1.4,1.8v11h2.8v-9.2h38.1v8.3
		c0,13.7-8.5,24.8-19.1,24.9h-3.6C52,62.5,44.7,53.7,35.9,53.7h-8.5c-8.8,0-16.1,8.8-16.9,20.3H9.1c-0.8,0-1.4,0.8-1.4,1.8
		c0,7.1,4.4,12.9,9.9,12.9h64.9c5.4,0,9.9-5.8,9.9-12.9C92.3,74.7,91.7,73.9,90.9,73.9z M77.3,57.3c0.3-1.2,0.5-2.4,0.7-3.7h3.1
		c0,2-1.3,3.7-2.8,3.7H77.3z M21.8,58.9v4c0,1,0.6,1.8,1.4,1.8c0.5,0,1-0.4,1.3-1l2.4-6.3c0.2,0,0.4,0,0.5,0h1.4v5.5
		c0,1,0.6,1.8,1.4,1.8c0.5,0,1-0.4,1.3-1l2.4-6.3h2v5.5c0,1,0.6,1.8,1.4,1.8c0.5,0,1-0.4,1.3-1l2-5.3c5.2,2.4,8.8,8.4,9.3,15.5H13.4
		C13.9,67.3,17.1,61.6,21.8,58.9z M82.5,85H17.5c-3.4,0-6.2-3.1-6.9-7.4h78.8C88.7,81.9,85.8,85,82.5,85z"/>
	<path class="st0" d="M60.1,16.8c0-1.9,0.6-3.7,1.6-5l2.8-3.7l2,2.6l-2.8,3.7c-1,1.3-1,3.4,0,4.8l0,0c2.1,2.8,2.1,7.2,0,10l0,0
		l-2.8,3.7l-2-2.6l2.8-3.7c1-1.3,1-3.5,0-4.8l0,0C60.7,20.5,60.1,18.7,60.1,16.8z"/>
	<path class="st0" d="M51.7,16.8c0-1.9,0.6-3.7,1.6-5l2.8-3.7l2,2.6l-2.8,3.7c-1,1.3-1,3.4,0,4.8l0,0c2.1,2.8,2.1,7.2,0,10l0,0
		l-2.8,3.7l-2-2.6l2.8-3.7c1-1.3,1-3.5,0-4.8l0,0C52.2,20.5,51.7,18.7,51.7,16.8z"/>
	<path class="st0" d="M43.2,16.8c0-1.9,0.6-3.7,1.6-5l2.8-3.7l2,2.6l-2.8,3.7c-1,1.3-1,3.4,0,4.8l0,0c2.1,2.8,2.1,7.2,0,10l0,0
		l-2.8,3.7l-2-2.6l2.8-3.7c1-1.3,1-3.5,0-4.8l0,0C43.8,20.5,43.2,18.7,43.2,16.8z"/>
</g>
</svg>
