<?xml version="1.0" encoding="utf-8"?>
<!-- Generator: Adobe Illustrator 24.1.2, SVG Export Plug-In . SVG Version: 6.00 Build 0)  -->
<svg version="1.1" id="Camada_1" xmlns="http://www.w3.org/2000/svg" xmlns:xlink="http://www.w3.org/1999/xlink" x="0px" y="0px"
	 viewBox="0 0 100 100" style="enable-background:new 0 0 100 100;" xml:space="preserve">
<style type="text/css">
	.st0{fill:#FFFFFF;}
</style>
<g>
	<path class="st0" d="M71.6,6.3c0.2,0.2,0.4,0.5,0.6,0.7c1.4,0.6,2,1.8,2,3.1c0.1,3.4,0,6.8,0.1,10.2c0,0.9-0.3,1.3-1.3,1.3
		s-1.4-0.4-1.4-1.4c0-3.1,0-6.2,0-9.4c0-1.4-0.4-1.9-1.8-1.9c-16.2,0-32.5,0-48.7,0c-1.4,0-2,0.7-1.9,2.1c0,0.8,0.4,1.2,1.2,1.1
		c0.3,0,0.6,0,0.8,0c14,0,28.1,0,42.1,0c1.2,0,2.4,0.1,3.4,0.6c1.1,0.5,1.7,1.6,1.7,2.9c0,0.7,0,1.4,0,2c0,20.8,0,41.7,0,62.5
		c0,0.8-0.3,1.8,1.2,1.8c1.6-0.1,1.9-0.3,1.9-1.9c0-17.7,0-35.4,0-53.2c0-0.6-0.3-1.4,0.6-1.7c0.4-0.1,0.8-0.5,1.1-0.4
		c0.4,0.2,0.7,0.6,0.9,1.1c0.1,0.3,0,0.6,0,1c0,17.7,0,35.4,0,53.2c0,1.9-0.7,3.3-2.1,4.3c-0.6,0.4-1.6,0.4-2.4,0.3
		c-1.1,0-1.5,0.4-1.5,1.5c-0.1,2.1-1.5,3.4-3.2,4.4c-17.2,0-34.5,0-51.7,0c-0.5-0.3-0.9-0.6-1.4-1c-1-0.9-1.4-2-1.4-3.4
		c0-3.6,0-7.3,0-10.9c0-0.1,0-0.2,0-0.2c0-0.8,0.3-1.6,1.2-1.6c1,0,1.4,0.8,1.5,1.6c0.1,1.4,0,2.9,0,4.3c0,2.2,0,4.4,0,6.6
		c0,1.5,0.3,1.8,1.8,1.8c4.7,0,9.4,0,14.1,0c11.2,0,22.4,0,33.6,0c2.1,0,2.7-0.6,2.7-2.8c0-22.5,0-45,0-67.4c0-2.7-0.7-2.9-2.9-2.9
		c-9.9,0-19.9,0-29.8,0c-5.6,0-11.2,0-16.8,0c-0.9,0-1.7,0.1-2.7,0.2c0,0.8-0.1,1.6-0.1,2.3c0,16.9,0,33.8,0,50.8
		c0,1.5-0.6,2.3-1.8,2.1c-0.3-0.1-0.7-0.5-0.9-0.8c-0.2-0.3-0.1-0.8-0.1-1.2c0-17.1,0-34.2,0-51.3c0-1.8,0.4-3.3,2-4.1
		c0.7-0.4,1.7-0.4,2.5-0.4c1.1,0,1.4-0.4,1.5-1.5c0-1.7,0.5-3.2,2.3-3.8c0.1-0.1,0.2-0.4,0.2-0.6C36.6,6.3,54.1,6.3,71.6,6.3z"/>
	<path class="st0" d="M31.3,18.7c3.5,0,7,0,10.5,0c2.4,0,3.5,1.2,3.5,3.5c0,6.8,0,13.6,0,20.4c0,2.3-1.4,3.8-3.7,3.8
		c-6.9,0-13.8-0.1-20.7,0c-2.2,0-3.7-1.9-3.7-3.8c0-6.8-0.1-13.7,0-20.5c0-2,1-3.5,3.3-3.5C24.2,18.8,27.8,18.7,31.3,18.7L31.3,18.7
		z M31.4,43.7c3.2,0,6.5,0,9.7,0c1.3,0,1.6-0.2,1.6-1.6c0-6.5,0-13,0-19.5c0-1-0.4-1.3-1.3-1.3c-1.3,0-2.7,0-4.1,0
		c-5.3,0-10.5,0-15.8,0c-0.9,0-1.6,0.1-1.6,1.3c0,6.5,0,13,0,19.5c0,1,0.4,1.6,1.6,1.6C24.8,43.7,28.1,43.7,31.4,43.7z"/>
	<path class="st0" d="M31.2,69.4c1.6,1.1,1.7,1.6,0.6,3c0,0,0,0.1,0,0.1c-2,1.5-2.2,3.6-2.1,5.8c0.1,1.4,0.4,2.9-0.5,4.3
		c-0.5,0.8-1.1,1.3-2.1,1.2c-2.2,0-4.5-0.1-6.7,0c-1.8,0.1-2.9-1.5-3-3c-0.1-2-0.1-4,0-6c0-1.8,1.2-2.9,2.9-2.9c2.4,0,4.7-0.1,7,0.1
		c1,0.1,1.7-0.4,2.3-1C30.2,70.6,30.7,70,31.2,69.4z M20.4,74.7c0.9,1.3,1.6,2.3,2.4,3.4c1.1-1.2,2.1-2.2,3.2-3.4
		C24,74.7,22.3,74.7,20.4,74.7z M27,78.1c-0.1-0.1-0.2-0.2-0.3-0.2c-1,1-1.9,1.9-2.9,2.9c0.1,0.1,0.1,0.2,0.2,0.3c1,0,2,0,3,0
		C27,80.1,27,79.1,27,78.1z"/>
	<path class="st0" d="M39.4,67.5c-6.7,0-13.4,0-20.1,0c-1,0-1.6-0.4-1.8-1.2c-0.2-0.7,0.9-1.5,1.9-1.5c13.3,0,26.6,0,40,0
		c0.4,0,0.9,0.1,1.2,0.3c0.3,0.3,0.7,1,0.6,1.4c-0.2,0.6-0.7,1-1.6,1C52.8,67.5,46.1,67.5,39.4,67.5z"/>
	<path class="st0" d="M17.5,52c0.4-1.2,1.3-1.1,2.3-1.1c13.1,0,26.2,0,39.3,0c0.5,0,1.1,0,1.5,0.3c0.3,0.3,0.7,1,0.5,1.3
		c-0.2,0.5-0.9,0.8-1.4,1c-0.2,0.1-0.5,0-0.8,0c-13,0-26,0-39,0C18.7,53.6,17.7,53.5,17.5,52z"/>
	<path class="st0" d="M17.4,59.2c0.5-1.2,1.5-1.5,2.8-1.5c12.8,0,25.5,0,38.3,0c0.7,0,1.4,0.2,2,0.5c0.3,0.2,0.7,0.8,0.6,1.1
		c0,0.3-0.5,0.7-0.9,0.9c-0.4,0.2-0.9,0.1-1.3,0.1c-13,0-26.1,0-39.1,0C18.8,60.4,17.8,60.5,17.4,59.2z"/>
	<path class="st0" d="M46.8,76.6c4.2,0,8.4,0,12.5,0c1,0,1.6,0.3,1.7,1.3c0.1,0.8-0.7,1.4-1.8,1.4c-8.4,0-16.8,0-25.2,0
		c-1,0-1.7-0.3-1.8-1.3c0-1.1,0.8-1.3,1.8-1.3C38.4,76.6,42.6,76.6,46.8,76.6z"/>
	<path class="st0" d="M47.5,32.8c0.6-1.1,1.5-1.5,2.8-1.5c2.6,0.1,5.2,0,7.8,0c0.8,0,1.6,0.3,2.3,0.6c0.3,0.1,0.7,0.7,0.7,1
		c0,0.4-0.4,0.8-0.8,1c-0.4,0.2-0.9,0.2-1.4,0.2c-3,0-6,0-9.1,0C48.8,34.1,47.9,34.1,47.5,32.8z"/>
	<path class="st0" d="M47.5,40.2c0.4-1,1.2-1.1,2.2-1.1c3.3,0,6.5,0,9.8,0c0.9,0,1.6,0.3,1.7,1.2c0.1,0.7-0.8,1.4-1.8,1.4
		c-3.2,0-6.3-0.1-9.4,0C48.7,41.8,47.9,41.4,47.5,40.2z"/>
	<path class="st0" d="M54.4,27.3c-1.5,0-3,0-4.5,0c-0.3,0-0.7,0.1-0.8,0c-0.5-0.5-1.3-1-1.4-1.5c-0.1-0.6,0.7-1.1,1.5-1.1
		c3.5,0,7,0,10.5,0c0.8,0,1.5,0.3,1.5,1.1c0,0.9-0.7,1.4-1.5,1.5C57.9,27.4,56.1,27.3,54.4,27.3L54.4,27.3z"/>
	<path class="st0" d="M89.3,50.9c0,5.2-0.1,10.5,0.1,15.7c0.1,2.1-0.6,3.9-1.5,5.7c-0.8,1.5-1.7,3-2.4,4.5c-0.4,0.9-1,1.7-2.1,1.7
		c-1,0-1.7-0.6-2.1-1.7c-1.1-2.4-2.5-4.6-3.7-7c-0.3-0.6-0.3-1.5-0.3-2.2c0-11.1,0-22.2,0-33.2c0-2.4,1.2-4,3.9-3.8
		c1.8,0.1,3.5,0,5.3,0c2,0,2.9,1,2.9,2.9C89.3,39.3,89.3,45.1,89.3,50.9L89.3,50.9z M86.7,41.1c-1.9,0-3.7,0-5.4,0
		c-0.9,0-1.2,0.2-1.2,1.2c0.1,3.8,0,7.6,0,11.4c0,4.1,0,8.2,0,12.2c0,1,0.3,1.5,1.3,1.4c1.2-0.1,2.4,0,3.6,0c1.7,0,1.7,0,1.7-1.7
		c0-7.7,0-15.3,0-23C86.7,42.2,86.7,41.7,86.7,41.1z M80.2,38.4c2.2,0,4.3,0,6.5,0c0-1.7,0-3.3,0-4.9c-2.2,0-4.3,0-6.5,0
		C80.2,35.1,80.2,36.7,80.2,38.4z M83.2,74.9c1.5-1.3,1.7-3.1,2.8-4.7c-1.8,0-3.4,0-5,0C81.6,71.7,82.3,73.1,83.2,74.9z"/>
	<path class="st0" d="M35.3,33.1c2.2,1.9,2.5,4.6,2.3,7.4c-0.1,0.8-0.5,1.3-1.4,1.3c-1.2,0-2.5,0-3.7,0c-0.9,0-1.5-0.5-1.4-1.3
		c0-0.8,0.6-1.3,1.5-1.3c0.8,0,1.6,0,2.3,0c0.2-1.9-0.6-3.8-2-4.5c-1.3-0.7-3.7,0.3-4.5,1.7c-0.7,1.2-0.5,2.5-0.6,3.8
		c0,0.8,0,1.7-1.2,1.6c-0.9,0-1.4-0.6-1.4-1.7c-0.1-2.4,0.1-4.6,1.9-6.4c0.5-0.5,0.4-1,0-1.4c-2.3-2.5-1.4-6.8,1.5-8.4
		c2.1-1.2,4.5-1,6.6,0.6c2,1.7,2.1,3.7,1.8,5.8C36.7,31.2,35.9,32.1,35.3,33.1z M34.3,28.7c0-1.7-1.3-3-2.9-3.1c-1.5,0-3,1.5-3,3.2
		c0,1.6,1.5,3.1,3,3.1C33,31.9,34.3,30.4,34.3,28.7z"/>
</g>
</svg>
