<?xml version="1.0" encoding="utf-8"?>
<!-- Generator: Adobe Illustrator 24.1.2, SVG Export Plug-In . SVG Version: 6.00 Build 0)  -->
<svg version="1.1" id="Camada_1" xmlns="http://www.w3.org/2000/svg" xmlns:xlink="http://www.w3.org/1999/xlink" x="0px" y="0px"
	 viewBox="0 0 100 100" style="enable-background:new 0 0 100 100;" xml:space="preserve">
<style type="text/css">
	.st0{fill:#FFFFFF;}
</style>
<g>
	<path class="st0" d="M23.3,77.6c-4,4-7.8,7.8-11.6,11.6c-0.6,0.6-1.5,1.1-2.2,1C8.1,90,8,88.5,9.4,87.1c3.2-3.3,6.5-6.5,9.7-9.7
		c0.6-0.6,1.2-1.1,2.3-2c-1.3-1-2.2-1.8-3.2-2.6c-1.1-1-1.2-2.1,0-3c2.1-1.6,2.7-3.5,2.5-6.3c-0.3-4,1.5-7.4,4.4-10.3
		c7.2-7.2,14.4-14.5,21.7-21.7c0.6-0.6,1.3-1,1.7-1.3c-0.1-0.6-0.1-0.8-0.2-0.9c-2.3-2.6-2.3-2.6,0.1-5.1c1.1-1.1,2.2-2.2,3.3-3.3
		c2.3-2.3,2.4-2.3,4.7,0.1c1.5,1.5,3,3.1,5,5.3c1.2-1.5,2.2-2.9,3.3-4.1c1.1-1.2,2.3-2.3,3.6-3.5c-0.7-0.7-1.3-1.4-1.8-2
		c-1.9-2.4-1.8-5.6,0.3-7.7c2-2.1,5.5-2.5,7.6-0.4c5.3,5.1,10.5,10.2,15.6,15.5c2.1,2.2,1.8,5.6-0.3,7.6c-2.1,2.1-5.3,2.3-7.7,0.4
		c-0.6-0.5-1.2-1.1-1.6-1.5c-2.4,2.4-4.7,4.7-7.5,7.5c1.6,1.4,3.4,3.1,5.3,4.8c1.5,1.3,1.4,2.4,0,3.7c-1.5,1.3-2.8,2.8-4.3,4.2
		c-2,2-2.1,2-4.3,0c-0.2-0.2-0.4-0.3-0.9-0.7c-2.3,2.3-4.5,4.5-6.7,6.8c-0.8,0.8-1.9,1.7-2.7,0.5c-0.4-0.5,0-2.1,0.6-2.8
		c2.1-2.3,4.4-4.4,6.4-6.4C61.2,42.9,56,37.7,50.9,32.6c-4,4-8.4,8.4-12.5,12.5c5.1,5.3,10.4,10.9,15.9,16.3
		c1.3,1.3,1.3,2.1,0.2,3.2c-3.3,3.2-6.5,6.5-9.8,9.7c-2.9,2.8-6.5,4.1-10.5,3.7c-1.9-0.2-3.2,0.3-4.5,1.7c-2.1,2.3-2.4,2.2-4.6,0
		C24.6,79.2,24.1,78.5,23.3,77.6z M23.7,64c3.9,3.6,7.7,7.1,12.1,11C43,74.7,46,67.4,51.1,63.6c-5.4-5.5-10.5-10.6-15.9-16
		C31.3,52.8,24,55.8,23.7,64z M75.1,44.9C68,37.7,61,30.6,54.1,23.7c-1.1,1-2.2,2.1-3.3,3.1c7,7.1,14.1,14.1,21.1,21.2
		C73,46.9,74.1,45.8,75.1,44.9z M88.7,27.9c-0.6-1-0.9-1.8-1.5-2.4c-4.6-4.6-9.2-9.2-13.8-13.8c-1.2-1.3-2.6-1.9-4-0.4
		c-1.4,1.4-0.8,2.8,0.4,4c2.4,2.4,4.8,4.8,7.2,7.2c2.3,2.3,4.5,4.7,7,6.9c0.6,0.6,1.9,0.8,2.8,0.6C87.4,29.7,87.9,28.7,88.7,27.9z
		 M77.4,28.4c-2.4-2.5-4.7-4.8-6.7-6.9c-2.2,2.2-4.6,4.5-6.6,6.5c2.2,2.2,4.5,4.6,6.8,6.8C73.1,32.7,75.4,30.4,77.4,28.4z
		 M21.8,70.8c2.2,2.2,4.2,4.2,6,6c0.8-0.6,1.8-1.4,2.5-1.9c-2.1-2.2-4.1-4.3-6-6.3C23.3,69.3,22.4,70.2,21.8,70.8z"/>
	<path class="st0" d="M60.7,51.2c-0.2,0.3-0.5,1-0.9,1.2c-0.5,0.2-1.4,0.1-1.8-0.2c-1.6-1.4-3.1-2.9-4.5-4.5
		c-0.3-0.4-0.4-1.5-0.1-1.9c0.3-0.4,1.5-0.7,1.8-0.5c1.8,1.5,3.4,3.2,5.1,4.9C60.5,50.4,60.5,50.7,60.7,51.2z"/>
	<path class="st0" d="M50,49.4c0.6,0.4,1.1,0.7,1.5,1.1c1.3,1.2,2.6,2.4,3.7,3.8c0.5,0.6,0.3,1.6,0.4,2.5c-0.8,0-2,0.2-2.5-0.2
		c-1.5-1.2-2.8-2.6-4.1-4c-0.4-0.5-0.5-1.3-0.4-2C48.7,50.1,49.5,49.8,50,49.4z"/>
	<path class="st0" d="M57.4,61.9c-0.8-1-1.8-1.6-1.7-2c0.1-0.7,0.9-1.2,1.5-1.8c0.5,0.5,1.3,1,1.4,1.5C58.7,60.2,58,60.8,57.4,61.9z
		"/>
	<path class="st0" d="M40.9,57.4c0.5,0.3,1,0.4,1.3,0.6c1.5,1.4,3,2.8,4.3,4.4c0.4,0.5,0.1,1.5,0.1,2.3c-0.8-0.1-1.8,0.2-2.3-0.3
		c-1.5-1.3-2.9-2.7-4.2-4.2c-0.4-0.4-0.5-1.2-0.4-1.8C39.8,58.1,40.5,57.8,40.9,57.4z"/>
</g>
</svg>
