<?xml version="1.0" encoding="utf-8"?>
<!-- Generator: Adobe Illustrator 26.0.1, SVG Export Plug-In . SVG Version: 6.00 Build 0)  -->
<svg version="1.1" id="Camada_1" xmlns="http://www.w3.org/2000/svg" xmlns:xlink="http://www.w3.org/1999/xlink" x="0px" y="0px"
	 viewBox="0 0 100 100" style="enable-background:new 0 0 100 100;" xml:space="preserve">
<g>
	<path d="M71.58,6.29c0.21,0.22,0.38,0.54,0.64,0.65c1.37,0.59,1.98,1.75,2.02,3.09c0.09,3.4,0.02,6.8,0.05,10.2
		c0.01,0.9-0.35,1.32-1.25,1.31c-0.9-0.01-1.42-0.38-1.42-1.36c0.01-3.12,0.01-6.24,0-9.36c0-1.38-0.45-1.85-1.81-1.86
		c-16.23-0.01-32.47-0.01-48.7,0c-1.35,0-1.95,0.7-1.88,2.07c0.04,0.79,0.4,1.17,1.2,1.14c0.28-0.01,0.56,0,0.84,0
		c14.04,0,28.08-0.01,42.12,0.03c1.15,0,2.39,0.14,3.41,0.62c1.05,0.49,1.7,1.56,1.68,2.86c-0.01,0.68,0.04,1.36,0.04,2.04
		c0,20.84,0,41.67,0.01,62.51c0,0.84-0.3,1.83,1.18,1.77c1.55-0.07,1.9-0.33,1.9-1.89c0-17.72,0-35.43,0.01-53.15
		c0-0.63-0.28-1.4,0.6-1.74c0.37-0.14,0.84-0.47,1.09-0.35c0.39,0.19,0.71,0.65,0.93,1.07c0.13,0.25,0.04,0.63,0.04,0.95
		c0,17.72-0.03,35.43,0.04,53.15c0.01,1.9-0.68,3.28-2.11,4.25c-0.61,0.41-1.59,0.36-2.4,0.34c-1.07-0.02-1.48,0.39-1.54,1.46
		c-0.11,2.11-1.46,3.42-3.15,4.45c-17.23,0-34.47,0-51.7,0c-0.46-0.33-0.95-0.64-1.38-1.01c-1.03-0.89-1.42-2.02-1.41-3.38
		c0.04-3.64,0.01-7.28,0.01-10.92c0-0.08,0.01-0.16,0.01-0.24c0.02-0.83,0.27-1.59,1.22-1.59c0.98,0,1.41,0.78,1.46,1.63
		c0.08,1.44,0.02,2.88,0.02,4.32c0,2.2-0.01,4.4,0.01,6.6c0.01,1.5,0.31,1.81,1.83,1.82c4.71,0.01,9.41,0,14.12,0
		c11.21,0,22.42-0.03,33.63,0.03c2.08,0.01,2.66-0.58,2.66-2.76c-0.01-22.48-0.01-44.95,0-67.43c0-2.75-0.67-2.88-2.87-2.88
		c-9.93-0.01-19.86,0-29.8,0c-5.58,0-11.17-0.01-16.75,0.01c-0.87,0-1.73,0.14-2.71,0.22c-0.04,0.84-0.11,1.59-0.11,2.34
		c-0.01,16.92,0,33.83-0.01,50.75c0,1.53-0.6,2.27-1.76,2.07c-0.34-0.06-0.7-0.49-0.87-0.84c-0.16-0.33-0.08-0.78-0.08-1.18
		c0-17.12,0.01-34.23-0.02-51.35c0-1.77,0.37-3.29,2.04-4.1c0.73-0.35,1.66-0.43,2.49-0.41c1.13,0.02,1.43-0.43,1.45-1.5
		c0.02-1.69,0.54-3.15,2.33-3.81c0.14-0.05,0.16-0.4,0.24-0.61C36.63,6.29,54.11,6.29,71.58,6.29z"/>
	<path d="M31.34,18.7c3.51,0,7.02-0.02,10.53,0.01c2.4,0.02,3.53,1.16,3.53,3.54c0.01,6.8,0.01,13.59,0,20.39
		c0,2.28-1.44,3.76-3.67,3.76c-6.9,0.01-13.8-0.08-20.7,0.05c-2.19,0.04-3.71-1.92-3.71-3.8c-0.01-6.84-0.07-13.68,0.04-20.51
		c0.03-1.96,0.95-3.54,3.34-3.46C24.24,18.78,27.79,18.7,31.34,18.7C31.34,18.7,31.34,18.7,31.34,18.7z M31.36,43.75
		c3.23,0,6.46,0,9.68,0c1.35,0,1.6-0.23,1.6-1.59c0.01-6.51-0.01-13.03,0.02-19.54c0-0.97-0.41-1.27-1.29-1.25
		c-1.35,0.03-2.71,0.01-4.06,0.01c-5.26,0-10.52,0-15.78,0c-0.88,0-1.57,0.12-1.57,1.27c0.02,6.51,0,13.03,0.02,19.54
		c0,0.98,0.4,1.61,1.57,1.59C24.82,43.71,28.09,43.75,31.36,43.75z"/>
	<path d="M31.21,69.41c1.62,1.12,1.69,1.58,0.56,2.97c-0.02,0.03-0.02,0.09-0.05,0.11c-2.05,1.47-2.2,3.56-2.1,5.85
		c0.06,1.41,0.42,2.91-0.51,4.28c-0.54,0.8-1.13,1.25-2.07,1.24c-2.23,0-4.47-0.09-6.69,0.03c-1.81,0.1-2.89-1.5-2.99-2.97
		c-0.13-1.99-0.06-3.99-0.03-5.99c0.03-1.78,1.17-2.91,2.91-2.92c2.35-0.01,4.71-0.08,7.05,0.06c1.02,0.06,1.67-0.36,2.3-0.96
		C30.16,70.58,30.68,69.97,31.21,69.41z M20.39,74.74c0.88,1.25,1.61,2.27,2.39,3.37c1.12-1.18,2.07-2.19,3.19-3.37
		C24.02,74.74,22.34,74.74,20.39,74.74z M26.97,78.12c-0.11-0.07-0.23-0.15-0.34-0.22c-0.95,0.96-1.91,1.91-2.86,2.87
		c0.07,0.11,0.14,0.22,0.21,0.32c0.98,0,1.96,0,2.99,0C26.97,80.06,26.97,79.09,26.97,78.12z"/>
	<path d="M39.39,67.47c-6.7,0-13.4-0.03-20.1,0.03c-0.99,0.01-1.6-0.36-1.81-1.2c-0.18-0.73,0.86-1.49,1.86-1.49
		c13.32,0,26.63-0.01,39.95,0.01c0.4,0,0.94,0.05,1.18,0.3c0.34,0.35,0.72,1.01,0.6,1.36c-0.22,0.59-0.74,1.02-1.59,1.02
		C52.78,67.46,46.08,67.47,39.39,67.47z"/>
	<path d="M17.47,52c0.35-1.15,1.3-1.07,2.25-1.07c13.11,0.01,26.22,0,39.33,0.02c0.49,0,1.11-0.02,1.45,0.25
		c0.35,0.28,0.7,1.03,0.55,1.33c-0.23,0.47-0.86,0.76-1.37,1.05c-0.21,0.12-0.55,0.03-0.83,0.03c-12.99,0-25.98-0.01-38.97,0.02
		C18.68,53.63,17.74,53.46,17.47,52z"/>
	<path d="M17.43,59.19c0.53-1.18,1.51-1.48,2.77-1.48c12.76,0.03,25.52,0.01,38.28,0.04c0.68,0,1.41,0.2,2.02,0.51
		c0.33,0.16,0.66,0.77,0.6,1.12c-0.05,0.35-0.53,0.74-0.91,0.91c-0.37,0.17-0.86,0.11-1.3,0.11c-13.04,0-26.08,0-39.12,0
		C18.77,60.41,17.76,60.46,17.43,59.19z"/>
	<path d="M46.85,76.61c4.18,0,8.36,0.02,12.55-0.01c0.95-0.01,1.61,0.3,1.74,1.27c0.1,0.76-0.73,1.37-1.77,1.37
		c-8.4,0-16.81,0-25.21,0.01c-0.98,0-1.74-0.35-1.77-1.35c-0.03-1.11,0.83-1.31,1.8-1.3C38.41,76.63,42.63,76.61,46.85,76.61z"/>
	<path d="M47.5,32.83c0.63-1.06,1.53-1.53,2.81-1.49c2.58,0.07,5.17-0.02,7.76,0.05c0.79,0.02,1.6,0.26,2.34,0.56
		c0.33,0.13,0.73,0.68,0.7,0.99c-0.04,0.37-0.44,0.82-0.81,1.01c-0.4,0.2-0.93,0.19-1.4,0.19c-3.02,0.01-6.05,0.01-9.07,0.01
		C48.85,34.15,47.91,34.09,47.5,32.83z"/>
	<path d="M47.48,40.25c0.41-1,1.2-1.14,2.17-1.13c3.26,0.04,6.53,0.03,9.79,0.01c0.9-0.01,1.57,0.25,1.7,1.2
		c0.1,0.73-0.8,1.44-1.78,1.44c-3.15,0.01-6.29-0.06-9.44,0.03C48.65,41.84,47.91,41.36,47.48,40.25z"/>
	<path d="M54.37,27.35c-1.52,0-3.03,0-4.55,0c-0.28,0-0.65,0.1-0.82-0.03c-0.54-0.46-1.35-0.97-1.42-1.53
		c-0.07-0.57,0.66-1.07,1.52-1.06c3.51,0.04,7.02,0.02,10.53,0.01c0.8,0,1.47,0.27,1.5,1.12c0.03,0.92-0.69,1.42-1.5,1.46
		C57.88,27.41,56.12,27.35,54.37,27.35C54.37,27.35,54.37,27.35,54.37,27.35z"/>
	<path d="M89.33,50.93c0,5.24-0.1,10.48,0.05,15.71c0.06,2.12-0.58,3.92-1.47,5.7c-0.76,1.53-1.65,3-2.45,4.51
		c-0.45,0.87-1.03,1.67-2.05,1.65c-1.03-0.02-1.65-0.64-2.13-1.69c-1.09-2.39-2.49-4.64-3.66-7c-0.32-0.64-0.35-1.48-0.35-2.23
		c-0.02-11.07,0.01-22.15-0.03-33.22c-0.01-2.42,1.19-3.97,3.87-3.78c1.75,0.13,3.51,0.01,5.26,0.03c1.96,0.02,2.93,0.95,2.94,2.92
		C89.34,39.34,89.33,45.14,89.33,50.93C89.33,50.93,89.33,50.93,89.33,50.93z M86.73,41.11c-1.95,0-3.7,0.05-5.45-0.02
		c-0.93-0.03-1.24,0.24-1.23,1.2c0.05,3.8,0.02,7.59,0.02,11.39c0,4.08,0.02,8.15-0.01,12.23c-0.01,1,0.27,1.47,1.35,1.4
		c1.19-0.08,2.39-0.02,3.59-0.02c1.73,0,1.73,0,1.73-1.69c0-7.67,0-15.35,0-23.02C86.73,42.16,86.73,41.72,86.73,41.11z
		 M80.17,38.37c2.21,0,4.33,0,6.48,0c0-1.69,0-3.3,0-4.94c-2.2,0-4.32,0-6.48,0C80.17,35.11,80.17,36.72,80.17,38.37z M83.17,74.88
		c1.53-1.25,1.74-3.14,2.75-4.71c-1.77,0-3.36,0-5.04,0C81.64,71.73,82.32,73.14,83.17,74.88z"/>
	<path d="M35.3,33.14c2.2,1.88,2.5,4.57,2.25,7.42c-0.07,0.75-0.55,1.26-1.4,1.26c-1.24,0-2.47,0-3.71,0c-0.9,0-1.47-0.46-1.41-1.33
		c0.05-0.78,0.59-1.3,1.47-1.29c0.79,0,1.57,0,2.34,0c0.24-1.86-0.63-3.78-1.98-4.51c-1.29-0.7-3.73,0.3-4.49,1.66
		c-0.69,1.24-0.54,2.53-0.57,3.82c-0.02,0.82,0.03,1.67-1.19,1.64c-0.87-0.02-1.38-0.64-1.43-1.73c-0.11-2.36,0.09-4.61,1.87-6.42
		c0.46-0.47,0.37-0.99-0.03-1.43c-2.26-2.47-1.42-6.75,1.45-8.4c2.12-1.22,4.52-1.05,6.6,0.65c2.03,1.66,2.1,3.67,1.77,5.81
		C36.69,31.24,35.9,32.08,35.3,33.14z M34.29,28.66c-0.01-1.72-1.27-3.03-2.94-3.07c-1.5-0.03-2.96,1.54-2.95,3.19
		c0.01,1.62,1.46,3.15,2.97,3.15C32.96,31.93,34.3,30.43,34.29,28.66z"/>
</g>
<g>
</g>
<g>
</g>
<g>
</g>
<g>
</g>
<g>
</g>
<g>
</g>
<g>
</g>
<g>
</g>
<g>
</g>
<g>
</g>
<g>
</g>
<g>
</g>
<g>
</g>
<g>
</g>
<g>
</g>
</svg>
