<?xml version="1.0" encoding="utf-8"?>
<!-- Generator: Adobe Illustrator 26.0.1, SVG Export Plug-In . SVG Version: 6.00 Build 0)  -->
<svg version="1.1" id="Camada_1" xmlns="http://www.w3.org/2000/svg" xmlns:xlink="http://www.w3.org/1999/xlink" x="0px" y="0px"
	 viewBox="0 0 100 100" style="enable-background:new 0 0 100 100;" xml:space="preserve">
<g>
	<path d="M82.47,46.3c2.34,0,4.23,2.47,4.23,5.52c-0.01,7.12-4.43,12.88-9.88,12.89h-2.18c0.59-1.18,1.12-2.41,1.57-3.68h2.02
		c3.12,0,5.64-3.3,5.65-7.37c0-2.03-1.26-3.68-2.82-3.68h-2.84c0.01-0.31,0.01-0.61,0.01-0.92V46.3H82.47z M90.94,73.92H67.09
		c1.99-1.47,3.79-3.33,5.34-5.52h4.39c7.01-0.01,12.7-7.42,12.7-16.57c0-5.08-3.16-9.2-7.06-9.21h-4.23v-3.68
		c0-1.02-0.63-1.84-1.41-1.84H35.88c-0.78,0-1.41,0.82-1.41,1.84v11.05h2.82v-9.21h38.11v8.29c-0.01,13.72-8.54,24.84-19.06,24.86
		h-3.59c-0.74-11.44-8.08-20.24-16.88-20.26h-8.47c-8.8,0.01-16.14,8.81-16.88,20.26H9.06c-0.78,0-1.41,0.82-1.41,1.84
		c0.01,7.12,4.43,12.88,9.88,12.89h64.93c5.45-0.01,9.88-5.77,9.88-12.89C92.35,74.75,91.72,73.92,90.94,73.92z M77.29,57.35
		c0.28-1.21,0.5-2.44,0.66-3.68h3.11c0,2.03-1.26,3.68-2.82,3.68H77.29z M21.77,58.89v3.98c0,1.02,0.63,1.84,1.41,1.84
		c0.53,0,1.02-0.39,1.26-1.02l2.43-6.33c0.18-0.01,0.36-0.02,0.55-0.02h1.41v5.52c0,1.02,0.63,1.84,1.41,1.84
		c0.53,0,1.02-0.39,1.26-1.02l2.43-6.35h1.95v5.52c0,1.02,0.63,1.84,1.41,1.84c0.53,0,1.02-0.39,1.26-1.02l2.03-5.29
		c5.15,2.39,8.79,8.43,9.34,15.52H13.37C13.89,67.3,17.1,61.56,21.77,58.89z M82.47,84.97H17.53c-3.35-0.01-6.24-3.08-6.92-7.37
		h78.77C88.71,81.89,85.82,84.96,82.47,84.97z"/>
	<path d="M60.12,16.84c0-1.87,0.57-3.67,1.58-4.98l2.82-3.68l2,2.6l-2.82,3.68c-1.01,1.31-1.01,3.45,0,4.76c0,0,0,0,0,0
		c2.11,2.75,2.11,7.22,0,9.97c0,0,0,0,0,0l-2.82,3.68l-2-2.6l2.82-3.68c1.01-1.31,1.01-3.45,0-4.76c0,0,0,0,0,0
		C60.69,20.5,60.12,18.71,60.12,16.84z"/>
	<path d="M51.65,16.84c0-1.87,0.57-3.67,1.58-4.98l2.82-3.68l2,2.6l-2.82,3.68c-1.01,1.31-1.01,3.45,0,4.76c0,0,0,0,0,0
		c2.11,2.75,2.11,7.22,0,9.97c0,0,0,0,0,0l-2.82,3.68l-2-2.6l2.82-3.68c1.01-1.31,1.01-3.45,0-4.76c0,0,0,0,0,0
		C52.22,20.5,51.65,18.71,51.65,16.84z"/>
	<path d="M43.18,16.84c0-1.87,0.57-3.67,1.58-4.98l2.82-3.68l2,2.6l-2.82,3.68c-1.01,1.31-1.01,3.45,0,4.76c0,0,0,0,0,0
		c2.11,2.75,2.11,7.22,0,9.97c0,0,0,0,0,0l-2.82,3.68l-2-2.6l2.82-3.68c1.01-1.31,1.01-3.45,0-4.76c0,0,0,0,0,0
		C43.75,20.5,43.18,18.71,43.18,16.84z"/>
</g>
<g>
</g>
<g>
</g>
<g>
</g>
<g>
</g>
<g>
</g>
<g>
</g>
<g>
</g>
<g>
</g>
<g>
</g>
<g>
</g>
<g>
</g>
<g>
</g>
<g>
</g>
<g>
</g>
<g>
</g>
</svg>
