<?xml version="1.0" encoding="utf-8"?>
<!-- Generator: Adobe Illustrator 26.0.1, SVG Export Plug-In . SVG Version: 6.00 Build 0)  -->
<svg version="1.1" id="Camada_1" xmlns="http://www.w3.org/2000/svg" xmlns:xlink="http://www.w3.org/1999/xlink" x="0px" y="0px"
	 viewBox="0 0 100 100" style="enable-background:new 0 0 100 100;" xml:space="preserve">
<g>
	<path d="M34.81,70.33c-0.09-1.43-0.35-2.63-0.19-3.78c0.46-3.37,3.13-5.56,6.65-5.57c5.28-0.02,10.56,0.02,15.83-0.03
		c0.64-0.01,1.39-0.25,1.89-0.64c4.96-3.95,10.51-6.03,16.91-5.84c3.5,0.11,7.01,0.01,10.51,0.02c3.39,0.02,5.76,2.35,5.77,5.76
		c0.03,7.38,0.02,14.76,0,22.14c-0.01,3.03-2,5.27-4.99,5.62c-0.97,0.12-1.98,0.11-2.96,0c-2.46-0.28-4.01-1.74-4.9-4.16
		c-0.42,0.23-0.81,0.43-1.18,0.65c-3.27,1.91-6.55,3.81-9.81,5.75c-1.82,1.08-3.77,1.57-5.89,1.57c-6.89-0.03-13.77-0.02-20.66-0.01
		c-2.08,0-3.99-0.52-5.72-1.68c-8.11-5.44-16.23-10.87-24.32-16.34c-4.31-2.91-4.42-8.9-0.23-11.82c2.42-1.69,5.01-1.78,7.57-0.33
		c4.55,2.58,9.06,5.23,13.61,7.82C33.36,69.83,34.1,70.04,34.81,70.33z M79.2,58.13c-2.8,0.16-5.4,0.15-7.96,0.48
		c-4.05,0.52-7.43,2.59-10.51,5.16c-0.94,0.78-1.94,1.09-3.17,1.08c-5.36-0.05-10.72-0.01-16.08-0.03c-1.3-0.01-2.38,0.33-2.97,1.57
		c-0.93,1.95,0.5,3.96,2.85,3.97c7.51,0.02,15.01,0,22.52,0.01c1.48,0,2.28,0.68,2.28,1.86c0,1.13-0.86,1.85-2.29,1.85
		c-9.36,0.01-18.72,0.04-28.08-0.03c-1.36-0.01-2.89-0.2-4.06-0.83c-4.72-2.53-9.36-5.21-13.96-7.94c-1.93-1.14-3.87-1.01-5,0.64
		c-1.13,1.64-0.62,3.62,1.27,4.88c7.95,5.31,15.87,10.66,23.88,15.89c1.11,0.72,2.59,1.18,3.91,1.2c7.01,0.12,14.02,0.11,21.03,0.01
		c1.25-0.02,2.62-0.42,3.73-1.03c3.93-2.17,7.75-4.53,11.64-6.77c0.74-0.43,1-0.91,1-1.76c-0.03-6.23-0.02-12.45-0.02-18.68
		C79.2,59.26,79.2,58.86,79.2,58.13z M82.92,58.19c0,0.63,0,1.12,0,1.61c0,6.14,0,12.28,0,18.43c0,1.28-0.02,2.56,0.01,3.83
		c0.03,1.53,0.66,2.14,2.2,2.18c0.45,0.01,0.91,0.02,1.36-0.01c1.29-0.06,1.93-0.72,1.98-2.02c0.01-0.12,0-0.25,0-0.37
		c0-7.09,0-14.18,0-21.27c0-1.75-0.62-2.36-2.39-2.37C85.1,58.19,84.11,58.19,82.92,58.19z"/>
	<path d="M58.66,38.23c-0.51,9.63-7.48,16.62-17.12,17.15c-10.34,0.58-19.4-9.22-18.06-19.46c0.44-3.4,1.65-6.42,3.67-9.18
		c3.99-5.46,7.92-10.96,11.89-16.44c1.41-1.94,2.56-1.96,3.95-0.03c4.04,5.58,8.08,11.15,12.1,16.74
		C57.57,30.47,58.86,34.56,58.66,38.23z M41.11,13.96c-0.19,0.18-0.3,0.25-0.37,0.34c-3.71,5.14-7.47,10.26-11.12,15.45
		c-2.15,3.06-2.9,6.48-2.33,10.21c0.85,5.5,5.06,10.06,10.65,11.42c5.39,1.31,11.11-0.83,14.4-5.39c3.38-4.68,3.73-10.86,0.54-15.55
		C49.1,24.89,45.08,19.51,41.11,13.96z"/>
	<path d="M39.18,34.93c0-1.26-0.02-2.36,0-3.46c0.02-1.27,0.7-2.06,1.77-2.11c1.11-0.04,1.89,0.79,1.94,2.09
		c0.02,0.58,0,1.15,0,1.73c0,0.53,0,1.06,0,1.75c1.01,0,1.94,0,2.87,0c1.79,0,2.65,0.59,2.67,1.83c0.02,1.25-0.86,1.89-2.61,1.89
		c-0.94,0-1.87,0-2.93,0c0,1.22,0.02,2.32,0,3.42c-0.03,1.32-0.77,2.15-1.88,2.14c-1.11-0.01-1.81-0.82-1.83-2.17
		c-0.02-1.07,0-2.13,0-3.39c-1.15,0-2.24,0.01-3.34,0c-1.41-0.02-2.28-0.76-2.26-1.89c0.02-1.09,0.86-1.8,2.2-1.82
		C36.85,34.92,37.92,34.93,39.18,34.93z"/>
</g>
<g>
</g>
<g>
</g>
<g>
</g>
<g>
</g>
<g>
</g>
<g>
</g>
<g>
</g>
<g>
</g>
<g>
</g>
<g>
</g>
<g>
</g>
<g>
</g>
<g>
</g>
<g>
</g>
<g>
</g>
</svg>
