<?xml version="1.0" encoding="utf-8"?>
<!-- Generator: Adobe Illustrator 26.0.1, SVG Export Plug-In . SVG Version: 6.00 Build 0)  -->
<svg version="1.1" id="Camada_1" xmlns="http://www.w3.org/2000/svg" xmlns:xlink="http://www.w3.org/1999/xlink" x="0px" y="0px"
	 viewBox="0 0 100 100" style="enable-background:new 0 0 100 100;" xml:space="preserve">
<g>
	<path d="M48.79,92c-2.76-1.48-4.72-3.83-6.62-6.21c-8.29-10.39-15.27-21.57-20.35-33.88c-1.34-3.25-2.4-6.59-2.86-10.08
		c-0.57-4.28-0.11-8.51,1.31-12.57c4.05-11.53,12.08-18.78,24.06-21.13c16.86-3.3,33.28,8.06,36.45,24.82
		c1.06,5.58,0.34,10.95-1.55,16.24c-2.68,7.5-6.44,14.46-10.61,21.21c-3.83,6.2-7.94,12.2-12.76,17.67
		c-1.35,1.53-2.77,2.97-4.59,3.94C50.44,92,49.62,92,48.79,92z M49.93,86.92c0.7-0.73,1.25-1.28,1.76-1.85
		c4.42-4.92,8.18-10.33,11.7-15.91c4.26-6.76,8.13-13.72,10.89-21.25c1.64-4.48,2.43-9.03,1.54-13.79
		c-2.65-14.11-16.14-23.64-30.25-21.06c-9.84,1.8-16.57,7.62-20.18,16.96c-1.33,3.45-1.82,7.07-1.41,10.75
		c0.36,3.29,1.41,6.41,2.67,9.45c4.74,11.47,11.25,21.88,18.88,31.63C46.87,83.57,48.39,85.16,49.93,86.92z"/>
	<path d="M31.56,38.82c0.03-10.26,8.33-18.47,18.61-18.42c10.16,0.05,18.43,8.4,18.34,18.52c-0.09,10.24-8.39,18.48-18.57,18.43
		C39.8,57.3,31.52,48.95,31.56,38.82z M50.02,52.25c7.34,0,13.38-6,13.42-13.34c0.05-7.36-5.99-13.41-13.4-13.42
		c-7.4-0.01-13.45,6.03-13.42,13.4C36.65,46.22,42.69,52.24,50.02,52.25z"/>
</g>
<g>
</g>
<g>
</g>
<g>
</g>
<g>
</g>
<g>
</g>
<g>
</g>
<g>
</g>
<g>
</g>
<g>
</g>
<g>
</g>
<g>
</g>
<g>
</g>
<g>
</g>
<g>
</g>
<g>
</g>
</svg>
