<?xml version="1.0" encoding="utf-8"?>
<!-- Generator: Adobe Illustrator 26.0.1, SVG Export Plug-In . SVG Version: 6.00 Build 0)  -->
<svg version="1.1" id="Camada_1" xmlns="http://www.w3.org/2000/svg" xmlns:xlink="http://www.w3.org/1999/xlink" x="0px" y="0px"
	 viewBox="0 0 100 100" style="enable-background:new 0 0 100 100;" xml:space="preserve">
<g>
	<path d="M50.01,57.9c1.5-1.73,2.92-3.36,4.34-5c1.42-1.64,2.86-3.27,4.26-4.93c0.38-0.46,0.75-0.55,1.33-0.43
		c11.17,2.2,19.72,12.32,19.65,24.21c-0.03,5.1,0,10.2-0.01,15.31c0,2.13-1.04,3.18-3.16,3.19c-17.6,0-35.2,0-52.8,0
		c-2.14,0-3.2-1.04-3.2-3.15c0-5.52-0.1-11.05,0.07-16.57c0.2-6.55,2.83-12.07,7.53-16.64c3.36-3.27,7.36-5.3,11.91-6.32
		c0.68-0.15,1.1-0.01,1.56,0.52c2.53,2.96,5.09,5.89,7.64,8.84C49.39,57.2,49.65,57.49,50.01,57.9z M50.01,62.16
		c-0.29-0.33-0.49-0.55-0.68-0.78c-2.95-3.4-5.91-6.78-8.84-10.2c-0.45-0.52-0.85-0.76-1.53-0.47c-1.3,0.55-2.7,0.92-3.93,1.59
		c-7.15,3.94-11.25,9.98-11.68,18.16c-0.29,5.39-0.08,10.81-0.12,16.21c-0.01,0.72,0.35,0.75,0.89,0.75
		c17.24-0.01,34.48-0.01,51.72,0.01c0.77,0,0.96-0.24,0.95-0.98c-0.03-4.86,0.04-9.72-0.05-14.58c-0.03-1.83-0.18-3.71-0.65-5.46
		c-2.13-7.88-7.11-13.12-14.89-15.68c-0.74-0.24-1.2-0.14-1.7,0.47c-1.34,1.63-2.75,3.2-4.14,4.8
		C53.6,58.03,51.84,60.05,50.01,62.16z"/>
	<path d="M65.73,27.24c-0.21,1.92-0.23,4.18-0.72,6.34c-1.69,7.46-9.38,12.64-16.96,11.59c-7.87-1.1-13.55-7.58-13.57-15.54
		c-0.01-2.59-0.19-5.23,0.21-7.77c1.51-9.5,10.47-15.27,19.7-12.58c5.78,1.68,9.45,5.71,10.76,11.63
		C65.58,22.85,65.53,24.91,65.73,27.24z M37.41,26.94c-0.04,0-0.09,0-0.13,0c0,0.88-0.02,1.75,0,2.63
		c0.11,5.43,2.58,9.38,7.48,11.74c7.41,3.57,16.72-1.38,17.76-9.52c0.33-2.62,0.23-5.3,0.18-7.95c-0.13-6.55-5.36-12.01-11.77-12.37
		c-6.81-0.38-12.61,4.24-13.5,10.87C37.24,23.84,37.41,25.4,37.41,26.94z"/>
	<path d="M65.12,76.93c0,1.44,0,2.73,0,4.03c0,0.33,0.01,0.67-0.03,0.99c-0.11,0.79-0.56,1.27-1.36,1.32
		c-0.74,0.04-1.35-0.53-1.39-1.37c-0.06-1.26-0.02-2.53-0.03-3.8c0-0.35,0-0.71,0-1.16c-1.4,0-2.69,0-3.98,0
		c-0.36,0-0.73,0.02-1.08-0.03c-0.78-0.11-1.31-0.69-1.27-1.4c0.05-0.76,0.48-1.25,1.23-1.34c0.69-0.08,1.38-0.04,2.08-0.04
		c0.96-0.01,1.92,0,3.02,0c0-1.27,0-2.46,0-3.66c0-0.42-0.02-0.85,0.02-1.27c0.08-0.86,0.62-1.4,1.37-1.42
		c0.76-0.02,1.37,0.57,1.41,1.47c0.05,1.02,0.02,2.05,0.02,3.08c0,0.57,0,1.13,0,1.8c1.4,0,2.69,0,3.98,0
		c0.33,0,0.67-0.02,0.99,0.02c0.83,0.1,1.38,0.69,1.37,1.42c-0.02,0.74-0.59,1.33-1.42,1.36c-1.24,0.04-2.47,0.02-3.71,0.02
		C65.96,76.93,65.61,76.93,65.12,76.93z"/>
</g>
<g>
</g>
<g>
</g>
<g>
</g>
<g>
</g>
<g>
</g>
<g>
</g>
<g>
</g>
<g>
</g>
<g>
</g>
<g>
</g>
<g>
</g>
<g>
</g>
<g>
</g>
<g>
</g>
<g>
</g>
</svg>
