<?xml version="1.0" encoding="utf-8"?>
<!-- Generator: Adobe Illustrator 26.0.1, SVG Export Plug-In . SVG Version: 6.00 Build 0)  -->
<svg version="1.1" id="Camada_1" xmlns="http://www.w3.org/2000/svg" xmlns:xlink="http://www.w3.org/1999/xlink" x="0px" y="0px"
	 viewBox="0 0 100 100" style="enable-background:new 0 0 100 100;" xml:space="preserve">
<g>
	<path d="M64.26,70.58c-5.64,0.3-6.7-1.34-6.8-5.96c-0.83,0-1.67,0.01-2.5,0c-2.29-0.04-4.58,0.03-6.86-0.17
		c-2.76-0.25-5.12-2.78-5.11-5.8c0.06-14.07,0.09-28.13-0.02-42.2c-0.03-3.91,2.94-6.34,6.3-6.37c2.44-0.02,4.89,0,7.43,0
		c0.45-2.32,1.84-4.01,3.74-5.23c1.85-1.19,3.96-1.72,6.18-1.54c4.13,0.32,7.52,2.67,8.64,6.76c2.29,0,4.61-0.01,6.92,0
		c1.9,0.01,3.6,0.47,5.05,1.84c1.04,0.99,1.47,2.15,1.48,3.5c0.03,3.36,0.01,6.72,0.01,10.08c0,10.93-0.11,21.86,0.06,32.78
		c0.06,4.13-2.77,6.29-6.35,6.35c-2.45,0.04-4.89,0.01-7.34,0.01c-0.25,0-0.5,0.02-0.88,0.04c0,0.7,0.01,1.37,0,2.05
		c-0.02,2.15-1.53,3.71-3.68,3.8c-0.78,0.03-1.57,0.04-2.35,0.01c-0.61-0.02-0.85,0.18-0.93,0.84c-0.18,1.46-0.32,2.95-0.78,4.33
		c-1.04,3.06-2.61,5.84-4.83,8.25c-1.77,1.92-3.72,3.56-5.93,4.92c-3.42,2.12-7.13,3.44-11.1,4.04c-5.22,0.79-10.37,0.47-15.41-1.13
		c-2.8-0.89-5.42-2.19-7.84-3.9c-2.61-1.85-4.78-4.12-6.61-6.73c-0.51-0.73-1-1.51-1.36-2.32c-1.21-2.75-2.2-5.57-2.2-8.63
		c0-8.29-0.01-16.58,0-24.87c0-1.13,0.47-1.61,1.49-1.59c1.04,0.02,1.51,0.5,1.51,1.6c0,7.72-0.02,15.45,0.02,23.17
		c0.01,1.47,0.07,2.96,0.37,4.39c0.58,2.77,1.7,5.31,3.39,7.64c1.47,2.02,3.19,3.75,5.19,5.18c3.1,2.23,6.57,3.69,10.33,4.38
		c4.72,0.86,9.41,0.74,14.04-0.58c2.97-0.84,5.68-2.19,8.19-4c2.6-1.89,4.74-4.21,6.27-6.99C63.33,76.12,64.34,73.52,64.26,70.58z
		 M46.08,52.09c0.48,0,0.85,0,1.22,0c1.57,0,3.14-0.02,4.7,0.01c1,0.02,1.73,0.64,1.71,1.37c-0.02,0.72-0.67,1.23-1.69,1.3
		c-0.22,0.02-0.44,0.01-0.66,0.01c-1.35,0-2.7-0.01-4.05,0c-0.42,0-0.84,0.05-1.29,0.08c0,1.4-0.01,2.68,0,3.97
		c0.01,1.25,0.83,2.46,2.03,2.83c0.67,0.21,1.41,0.27,2.12,0.27c10.44,0.02,20.89,0.01,31.33,0.01c0.41,0,0.82,0,1.22-0.03
		c2.05-0.15,2.99-1.16,2.99-3.19c0-10.3,0-20.6,0-30.89c0-0.33,0-0.66,0-0.96c-13.3,0-26.46,0-39.64,0c0,2.46,0,4.86,0,7.36
		c1.09,0,2.12,0,3.15,0c0.97,0,1.95-0.04,2.92,0.03c0.93,0.06,1.56,0.65,1.55,1.33c-0.01,0.64-0.69,1.23-1.57,1.33
		c-0.22,0.02-0.44,0.01-0.66,0.01c-1.19,0-2.38,0-3.58,0c-0.61,0-1.22,0-1.83,0c0,2.18,0,4.17,0,6.27c0.39,0,0.72,0,1.06,0
		c1.66,0,3.32-0.01,4.99,0.01c0.86,0.01,1.57,0.61,1.58,1.27c0.01,0.66-0.68,1.29-1.53,1.35c-0.34,0.02-0.69,0.01-1.03,0.01
		c-1.68,0-3.36,0-5.08,0C46.08,47.96,46.08,49.95,46.08,52.09z M85.73,24.13c0-2.96,0.02-5.81-0.01-8.67
		c-0.02-1.38-0.94-2.36-2.37-2.62c-0.49-0.09-1-0.11-1.5-0.12c-2.6-0.01-5.21,0.01-7.81-0.01c-1.31-0.01-1.57-0.27-1.77-1.55
		c-0.08-0.52-0.09-1.11-0.34-1.55c-1.62-2.82-3.87-3.84-7.03-3.51c-2.57,0.27-5.07,2.49-5.19,4.75c-0.08,1.56-0.46,1.86-2.07,1.86
		c-2.67,0.01-5.33,0.02-8,0c-2.14-0.02-3.64,1.21-3.62,3.68c0.01,1.13,0,2.26,0,3.39c0,1.43,0,2.87,0,4.34
		C59.31,24.13,72.47,24.13,85.73,24.13z M60.83,64.71c0,0.82-0.09,1.59,0.04,2.31c0.06,0.33,0.56,0.83,0.87,0.83
		c2.82,0.06,5.64,0.03,8.46,0.04c0.62,0,0.95-0.34,0.98-0.91c0.04-0.74,0.01-1.48,0.01-2.27C67.71,64.71,64.34,64.71,60.83,64.71z"
		/>
	<path d="M71.33,53.41c-4.3-0.07-6.72-1.51-8.12-4.38c-0.66-1.36-0.65-2.88,0.21-4.3c0.61-1,1.02-2.12,1.64-3.1
		c1.17-1.86,2.39-3.69,3.68-5.47c0.95-1.31,2.32-1.21,3.35,0.26c1.3,1.85,2.53,3.74,3.72,5.66c0.68,1.09,1.32,2.23,1.77,3.42
		c0.76,2-0.02,3.8-1.28,5.27C74.76,52.6,72.66,53.45,71.33,53.41z M70.06,38.92c-1.28,2.3-2.53,4.5-3.74,6.73
		c-0.87,1.6-0.38,3.36,1.1,4.28c2.02,1.25,3.99,1.2,5.95-0.14c0.79-0.54,1.66-2.61,1.38-3.29c-1.01-2.51-2.51-4.73-4.01-6.97
		C70.63,39.34,70.41,39.22,70.06,38.92z"/>
</g>
<g>
</g>
<g>
</g>
<g>
</g>
<g>
</g>
<g>
</g>
<g>
</g>
<g>
</g>
<g>
</g>
<g>
</g>
<g>
</g>
<g>
</g>
<g>
</g>
<g>
</g>
<g>
</g>
<g>
</g>
</svg>
