<?xml version="1.0" encoding="utf-8"?>
<!-- Generator: Adobe Illustrator 26.0.1, SVG Export Plug-In . SVG Version: 6.00 Build 0)  -->
<svg version="1.1" id="Camada_1" xmlns="http://www.w3.org/2000/svg" xmlns:xlink="http://www.w3.org/1999/xlink" x="0px" y="0px"
	 viewBox="0 0 100 100" style="enable-background:new 0 0 100 100;" xml:space="preserve">
<g>
	<path d="M7.75,38.78c0.22-1.4,0.34-2.83,0.7-4.2c0.31-1.17,0.75-2.38,1.4-3.39c1.58-2.45,4.54-2.61,6.52-0.46
		c1.3,1.41,1.98,3.15,2.58,4.92c1.44,4.24,2.24,8.64,2.97,13.05c0.34,2.05,0.48,4.15,1.72,6.05c1.39-2.03,3.4-2.71,5.69-2.51
		c1.38,0.12,2.77,0.42,4.09,0.85c3.87,1.26,7.31,3.37,10.72,5.53c2.28,1.44,4.33,3.11,5.87,5.44c0.46-0.57,0.87-1.1,1.3-1.61
		c1.78-2.13,4.13-3.52,6.44-4.94c3.35-2.05,6.76-4,10.64-4.9c1.11-0.26,2.28-0.39,3.42-0.36c1.87,0.04,3.45,0.8,4.6,2.46
		c0.94-1.57,1.21-3.22,1.47-4.89c0.76-4.93,1.57-9.86,3.31-14.56c0.55-1.5,1.29-3,2.26-4.25c2.02-2.61,5.25-2.28,6.94,0.57
		c1.11,1.86,1.46,3.96,1.64,6.06c0.43,4.89,0.19,9.78-0.29,14.65c-0.22,2.17-0.42,4.39-1.01,6.48c-0.94,3.31-2.99,6.06-5.34,8.5
		c-3.58,3.73-7.32,7.29-10.96,10.95c-1.35,1.36-2.64,2.79-3.92,4.23c-2.18,2.46-3.49,5.25-3.03,8.64c-11.66,0-23.32,0-34.98,0
		c0.44-3.36-0.81-6.14-2.98-8.58c-1.42-1.6-2.88-3.18-4.38-4.7c-3.81-3.88-7.74-7.65-11.46-11.62c-2.28-2.43-4.11-5.27-4.8-8.6
		c-0.46-2.22-0.56-4.51-0.79-6.78c-0.14-1.36-0.23-2.73-0.34-4.09C7.75,44.06,7.75,41.42,7.75,38.78z M13.51,35.43
		c-0.11-0.01-0.22-0.03-0.32-0.04c-0.15,2.16-0.47,4.31-0.43,6.47c0.07,3.84,0.44,7.68,0.54,11.52c0.08,3.36,1.37,6.19,3.45,8.7
		c1.56,1.88,3.21,3.69,4.93,5.42c2.96,2.99,6.05,5.84,9.01,8.83c2.69,2.73,5.15,5.65,6.37,9.39c0.06,0.19,0.49,0.36,0.75,0.36
		c3.08,0.02,6.16,0.02,9.24,0.01c0.18,0,0.37-0.03,0.58-0.05c0.02-0.2,0.04-0.36,0.04-0.52c0-4.7,0-9.4,0-14.1
		c0-0.19-0.01-0.39-0.06-0.57c-0.64-2.85-2.05-5.27-4.5-6.86c-2.99-1.93-6.1-3.69-9.24-5.38c-1.58-0.85-3.32-1.45-5.19-1.39
		c-0.81,0.02-0.98,0.24-0.78,1.02c0.26,0.99,0.81,1.78,1.64,2.39c2.69,2,5.37,4.01,8.05,6.02c0.41,0.31,0.81,0.62,1.24,0.96
		c-1.02,1.36-1.98,2.64-2.95,3.93c-0.17-0.1-0.26-0.15-0.35-0.21c-3.98-2.98-8-5.91-11.92-8.97c-3.44-2.69-5.53-6.28-6.31-10.58
		c-0.52-2.89-0.94-5.79-1.5-8.67C15.31,40.48,14.64,37.89,13.51,35.43z M62.7,86.07c0.5-1.1,0.92-2.18,1.47-3.19
		c1.74-3.2,4.27-5.77,6.82-8.32c3.68-3.67,7.44-7.26,11.01-11.03c2.69-2.84,4.5-6.11,4.71-10.23c0.25-4.88,0.73-9.75,0.39-14.65
		c-0.08-1.09-0.29-2.17-0.44-3.25c-0.37,0.4-0.55,0.8-0.7,1.2c-1.66,4.59-2.43,9.38-3.13,14.18c-0.68,4.71-2.7,8.67-6.45,11.66
		c-2.36,1.88-4.82,3.64-7.24,5.46c-1.62,1.22-3.24,2.43-4.9,3.67c-1-1.34-1.97-2.63-2.97-3.96c0.26-0.21,0.47-0.39,0.68-0.55
		c2.86-2.14,5.74-4.25,8.56-6.44c0.64-0.5,1.18-1.24,1.53-1.98c0.55-1.18,0.3-1.47-0.99-1.43c-0.38,0.01-0.77,0.05-1.14,0.13
		c-3.24,0.71-6.1,2.29-8.88,4c-1.79,1.11-3.62,2.23-5.19,3.62c-2.14,1.9-3.33,4.32-3.25,7.34c0.11,4.29,0.03,8.58,0.03,12.86
		c0,0.29,0,0.58,0,0.89C56.07,86.07,59.39,86.07,62.7,86.07z"/>
	<path d="M50.04,53.65c-2.32-1.85-4.52-3.71-6.83-5.43c-3.94-2.94-7.98-5.74-11.91-8.69c-2.34-1.75-4.41-3.81-6.02-6.28
		c-6.37-9.76-0.85-23.43,10.51-26.13c5.44-1.29,10.16-0.05,14.18,3.94c0.54-0.47,1.05-0.97,1.61-1.4c5.08-3.87,10.51-3.9,16.05-1.25
		c6.76,3.24,10.53,10.5,9.62,17.94c-0.6,4.9-3.18,8.62-6.85,11.61c-3.34,2.72-6.91,5.15-10.33,7.77c-3.16,2.42-6.25,4.93-9.38,7.4
		C50.47,53.3,50.26,53.47,50.04,53.65z M50,19.83c-0.95-1.48-1.73-2.87-2.68-4.14c-2.17-2.91-5-4.48-8.74-3.99
		c-4.66,0.6-8.01,3.06-9.9,7.33c-1.89,4.27-1.48,8.4,1.3,12.22c1.67,2.29,3.85,4.06,6.11,5.73c4.48,3.31,9,6.58,13.48,9.88
		c0.4,0.3,0.62,0.13,0.92-0.1c3.03-2.28,6.08-4.53,9.09-6.83c2.94-2.25,5.98-4.4,8.74-6.85c5.75-5.1,4.91-12.77,0.97-17.21
		c-2.87-3.24-6.51-4.77-10.83-4.07c-2.87,0.47-4.9,2.34-6.42,4.76C51.38,17.61,50.72,18.67,50,19.83z"/>
	<path d="M52.49,36.43c-1.73,0-3.32,0-4.96,0c0-1.62,0-3.2,0-4.88c-1.66,0-3.27,0-4.92,0c0-1.69,0-3.3,0-4.96c1.61,0,3.19,0,4.87,0
		c0-1.72,0-3.37,0-5.08c1.69,0,3.29,0,4.96,0c0,1.66,0,3.3,0,5.03c1.66,0,3.27,0,4.92,0c0,1.69,0,3.29,0,4.96c-1.6,0-3.18,0-4.86,0
		C52.49,33.16,52.49,34.77,52.49,36.43z"/>
</g>
<g>
</g>
<g>
</g>
<g>
</g>
<g>
</g>
<g>
</g>
<g>
</g>
<g>
</g>
<g>
</g>
<g>
</g>
<g>
</g>
<g>
</g>
<g>
</g>
<g>
</g>
<g>
</g>
<g>
</g>
</svg>
