<svg width="50" height="50" viewBox="0 0 50 50" fill="none" xmlns="http://www.w3.org/2000/svg">
<path d="M25 27.083C28.4518 27.083 31.25 24.2848 31.25 20.833C31.25 17.3812 28.4518 14.583 25 14.583C21.5482 14.583 18.75 17.3812 18.75 20.833C18.75 24.2848 21.5482 27.083 25 27.083Z" stroke="black" stroke-width="2" stroke-linecap="round" stroke-linejoin="round"/>
<path d="M25 4.1665C20.5797 4.1665 16.3405 5.92245 13.2149 9.04806C10.0893 12.1737 8.33333 16.4129 8.33333 20.8332C8.33333 24.7748 9.17083 27.354 11.4583 30.2082L25 45.8332L38.5417 30.2082C40.8292 27.354 41.6667 24.7748 41.6667 20.8332C41.6667 16.4129 39.9107 12.1737 36.7851 9.04806C33.6595 5.92245 29.4203 4.1665 25 4.1665V4.1665Z" stroke="black" stroke-width="2" stroke-linecap="round" stroke-linejoin="round"/>
</svg>
