<svg id="Layer_1" data-name="Layer 1" xmlns="http://www.w3.org/2000/svg" xmlns:xlink="http://www.w3.org/1999/xlink" viewBox="0 0 503.98 453.86"><defs><style>.cls-1{fill:url(#linear-gradient);}.cls-2{fill:#fff;}</style><linearGradient id="linear-gradient" x1="4.01" y1="256" x2="507.99" y2="256" gradientUnits="userSpaceOnUse"><stop offset="0" stop-color="#54bbb8"/><stop offset="0.33" stop-color="#54b89f"/></linearGradient></defs><path class="cls-1" d="M433.1,102.24c42.6,38.85,66.48,100.19,73,168.23,6.72,68-3.9,142.79-46.66,179.31-42.6,36.67-117.35,35.11-188,31.21-70.85-3.75-137.8-10-184.3-46.66C40.46,397.81,14.4,330.86,6.44,256c-8-74.75,2.49-157.62,49-196.32S184.81,26.08,256.91,36.85C329,47.46,390.34,63.53,433.1,102.24" transform="translate(-4.01 -29.07)"/><path class="cls-2" d="M362.82,201.33c-7.23-42.3-40.43-77.69-82.28-87-5.66-1.25-11.45-1.93-17.17-2.88H248.68a11.21,11.21,0,0,1-1.88.46,108.5,108.5,0,0,0-45.53,14.45c-40,22.94-61.21,71.12-51.05,116.14,5,22.08,14.55,42.2,26.14,61.43,20.83,34.61,46.59,65.31,75.08,93.81,3.7,3.71,5.46,3.71,9.18,0a535.7,535.7,0,0,0,55.9-64.93c15.15-20.81,28.59-42.61,38-66.66C362.76,245.28,366.66,223.89,362.82,201.33ZM256.53,269.51c-27.53.15-50.09-22-50.17-49.23a49.67,49.67,0,1,1,50.17,49.23Z" transform="translate(-4.01 -29.07)"/></svg>