<?xml version="1.0" encoding="utf-8"?>
<!-- Generator: Adobe Illustrator 24.1.2, SVG Export Plug-In . SVG Version: 6.00 Build 0)  -->
<svg version="1.1" id="Camada_1" xmlns="http://www.w3.org/2000/svg" xmlns:xlink="http://www.w3.org/1999/xlink" x="0px" y="0px"
	 viewBox="0 0 100 100" style="enable-background:new 0 0 100 100;" xml:space="preserve">
<style type="text/css">
	.st0{fill:#FFFFFF;}
</style>
<g>
	<path class="st0" d="M52.8,6.9c1.8,0.4,3.7,0.7,5.5,1.2C70.5,11.7,79.2,23,79.5,35.6c0.1,4.4-1.3,8.5-2.9,12.5
		c-4.7,11.6-11.4,22.1-18.2,32.6c-2.7,4.1-5.5,8.1-8.5,12.4c-4.1-6.1-8.1-11.8-11.8-17.7c-6-9.4-11.5-19-15.7-29.4
		C15.4,28.5,28.3,9.1,46.2,7.2c0.3,0,0.6-0.2,0.9-0.3C49,6.9,50.9,6.9,52.8,6.9z M49.7,83.6c0.3-0.2,0.4-0.3,0.5-0.4
		c8-11.6,15.6-23.4,21.1-36.4c1.4-3.3,2.7-7,2.8-10.6C74.4,23.8,63.9,13,51.5,12.3c-17.3-1-30.8,16.5-23.8,32.7
		c3.5,8.1,7.6,15.9,12.3,23.4C43.1,73.5,46.5,78.5,49.7,83.6z"/>
	<path class="st0" d="M49.9,49.8c-7.5,0-13.3-5.9-13.4-13.3c0-7.4,6-13.5,13.4-13.5c7.4,0,13.4,6.1,13.4,13.6
		C63.3,44,57.4,49.8,49.9,49.8z M58.1,36.6c0.1-4.2-3.6-8.1-7.9-8.2c-4.3-0.1-8.2,3.6-8.3,8c-0.1,4.3,3.5,8,7.9,8.2
		C54.1,44.7,58,41,58.1,36.6z"/>
</g>
</svg>
