<svg width="55" height="54" viewBox="0 0 55 54" fill="none" xmlns="http://www.w3.org/2000/svg">
<path d="M3.56063 41.1796C5.46933 39.2566 10.092 36.4502 12.3349 35.3193C15.2556 33.8482 15.496 33.728 17.7917 35.4335C19.323 36.5716 20.3411 37.5884 22.1332 37.2062C23.9253 36.824 27.8196 34.6691 31.2296 31.2702C34.6395 27.8713 36.9196 23.8642 37.303 22.0783C37.6865 20.2923 36.6528 19.2863 35.5254 17.7515C33.9364 15.5882 34.0566 15.2276 35.4148 12.307C36.4737 10.0355 39.362 5.45638 41.2923 3.55742C43.3573 1.51785 43.3573 1.87841 44.6878 2.43127C45.7711 2.887 46.8103 3.44098 47.7925 4.08625C49.7156 5.36383 50.7829 6.42509 51.5293 8.01997C52.2758 9.61485 52.6111 13.3539 48.7564 20.356C44.9018 27.3581 42.1974 30.9385 36.5999 36.5199C31.0024 42.1014 26.6982 45.1025 20.406 48.6312C12.6221 52.9904 9.6365 52.1407 8.0367 51.3955C6.4369 50.6503 5.37077 49.5927 4.09069 47.6697C3.44371 46.6892 2.88847 45.6512 2.432 44.5689C1.8779 43.2432 1.51731 43.2432 3.56063 41.1796Z" stroke="black" stroke-width="4" stroke-miterlimit="10"/>
</svg>
