<?xml version="1.0" encoding="utf-8"?>
<!-- Generator: Adobe Illustrator 24.1.2, SVG Export Plug-In . SVG Version: 6.00 Build 0)  -->
<svg version="1.1" id="Camada_1" xmlns="http://www.w3.org/2000/svg" xmlns:xlink="http://www.w3.org/1999/xlink" x="0px" y="0px"
	 viewBox="0 0 100 100" style="enable-background:new 0 0 100 100;" xml:space="preserve">
<style type="text/css">
	.st0{fill:#FFFFFF;}
</style>
<path class="st0" d="M25.9,8.4c2.5,0,5-0.1,7.4,0c4.5,0.2,8.7,3.7,9.5,8.2c0.7,4,1.4,7.9,2,11.9c0.8,5.2-2,9.6-7,11.2
	c-3.6,1.1-3.8,1.5-2.7,5.1c0.9,3.2,1.6,6.4,2.8,9.5c1.7,4.5,5.1,7.5,9.6,9.2c1.9,0.7,3.9,1.3,5.9,2c1.4,0.5,2.2,0.2,3.1-1
	c1.2-1.7,2.3-3.5,3.5-5.1c2.6-3.3,7.3-4.5,11.2-3.2c4.2,1.4,8.4,2.8,12.6,4.2c4.5,1.5,7.3,5.1,7.5,9.9c0.1,3.6,0.1,7.3,0,10.9
	c-0.2,5.9-4.1,10.1-10,10.3c-6.2,0.3-12.5,0.3-18.6-0.7c-17.3-2.9-31.1-11.5-41.5-25.6c-6.8-9.2-10.9-19.7-11.9-31.1
	c-0.5-5.4-0.4-10.9-0.3-16.4c0.1-5,4.6-9.2,9.6-9.4C20.9,8.3,23.4,8.4,25.9,8.4z M73.6,87.3c2.9,0,5.1,0,7.3,0
	c3.6-0.1,6.2-2.7,6.2-6.2c0.1-3.5,0.1-7,0-10.5c-0.1-2.7-1.3-4.8-3.9-5.8c-4.6-1.6-9.2-3.2-13.8-4.7c-2.4-0.8-5.1,0.2-6.5,2.3
	c-1,1.4-2,2.9-2.9,4.4c-1.7,2.7-4.5,3.8-7.5,2.8c-1.9-0.6-3.7-1.2-5.6-1.8c-6-2-10.5-5.7-12.8-11.7c-1.6-4.1-2.6-8.4-3.6-12.7
	c-0.3-1.2,0.1-2.6,0.5-3.8c0.8-2.1,2.6-3,4.6-3.6c4.3-1.2,5.7-3.3,5-7.7c-0.5-3.2-1-6.5-1.5-9.7c-0.6-3.8-2.9-6-6.4-6
	c-4.4-0.1-8.9-0.1-13.3,0c-3.6,0.1-6.2,2.5-6.3,6.1c-0.1,4.6-0.2,9.2,0.2,13.8c0.8,10.1,4,19.4,9.6,27.8c5.8,8.9,13.5,15.9,23,20.7
	C54.7,85.5,64.2,87.6,73.6,87.3z"/>
</svg>
