<?xml version="1.0" encoding="utf-8"?>
<!-- Generator: Adobe Illustrator 26.0.1, SVG Export Plug-In . SVG Version: 6.00 Build 0)  -->
<svg version="1.1" id="Camada_1" xmlns="http://www.w3.org/2000/svg" xmlns:xlink="http://www.w3.org/1999/xlink" x="0px" y="0px"
	 viewBox="0 0 1920 2212.4" style="enable-background:new 0 0 1920 2212.4;" xml:space="preserve">
<style type="text/css">
	.st0{clip-path:url(#SVGID_00000114788555565436952260000004054009955945845663_);}
	.st1{fill:#1D7B74;}
	.st2{fill:none;}
	.st3{fill:url(#SVGID_00000128482413738071216300000015201703512078608288_);}
	.st4{fill:url(#SVGID_00000044857167513322099250000012024809392229861777_);}
	.st5{fill:url(#SVGID_00000048477772901541016350000016877210950392710843_);}
	.st6{fill:url(#SVGID_00000152231270829672625480000009137074265703493769_);}
	.st7{fill:url(#SVGID_00000096053267051990433250000011710765588787316120_);}
	.st8{fill:url(#SVGID_00000174588748960455597560000007633023256117620656_);}
	.st9{fill:url(#SVGID_00000090990281965425009880000003145306308489352586_);}
</style>
<g>
	<defs>
		<rect id="SVGID_1_" x="0" width="1920" height="2220.4"/>
	</defs>
	<clipPath id="SVGID_00000078744785550212602500000010370190222327066530_">
		<use xlink:href="#SVGID_1_"  style="overflow:visible;"/>
	</clipPath>
	<g style="clip-path:url(#SVGID_00000078744785550212602500000010370190222327066530_);">
		<rect x="0" class="st1" width="1920" height="1080"/>
		<rect x="0" class="st2" width="1920" height="1080"/>
		
			<linearGradient id="SVGID_00000132045705301588283030000016955564884231774393_" gradientUnits="userSpaceOnUse" x1="1317.7098" y1="12.3267" x2="1317.6099" y2="13.3267" gradientTransform="matrix(944.09 2024.62 -3376.8999 1574.6801 -1199871.75 -2687347)">
			<stop  offset="0" style="stop-color:#1D7B74"/>
			<stop  offset="0" style="stop-color:#1D7B64"/>
		</linearGradient>
		<path style="fill:url(#SVGID_00000132045705301588283030000016955564884231774393_);" d="M2176.1-1236.2
			c-75,33.6-285.8,122.2-449.7,201.8S1364.2-837,1192.9-758.8s-336.8,127.3-494.4,194s-302.3,132-451.1,206.2
			S-27.2-196.5-194.6-119.5S-589.2,26.7-757,103.1s-369.9,196.2-443.8,235.5l933.1,2001.1l679-347.8l512.8-254.3L3109.3,765
			L2176.1-1236.2z"/>
		
			<linearGradient id="SVGID_00000176728621787030566250000011371852767109917090_" gradientUnits="userSpaceOnUse" x1="1317.5034" y1="12.3267" x2="1317.4034" y2="13.3267" gradientTransform="matrix(790.24 1694.67 -3376.8999 1574.6801 -996903.4375 -2252069)">
			<stop  offset="0" style="stop-color:#27A69D"/>
			<stop  offset="0.17" style="stop-color:#27A688"/>
		</linearGradient>
		<path style="fill:url(#SVGID_00000176728621787030566250000011371852767109917090_);" d="M2331.7-902.6
			c-82.1,39.3-326.2,159.5-492.3,235.6S1493.7-513.7,1335-446.2s-298,110.9-447.6,184.5S594.8-87.2,437.4-4.8
			C299.8,107,111.1,174.4-51.7,245.3s-323.1,101.9-487.8,175.2S-961,630.1-1045.2,672l777.6,1667.6l988.1-533.9L3109.3,765
			L2331.7-902.6z"/>
		
			<linearGradient id="SVGID_00000167393221690204011370000004233519347735872669_" gradientUnits="userSpaceOnUse" x1="1317.1991" y1="12.3271" x2="1317.0991" y2="13.3271" gradientTransform="matrix(638.06 1368.33 -3376.8999 1574.6801 -796143.8125 -1821545.5)">
			<stop  offset="0" style="stop-color:#34CFC4"/>
			<stop  offset="0.33" style="stop-color:#34CFAA"/>
		</linearGradient>
		<path style="fill:url(#SVGID_00000167393221690204011370000004233519347735872669_);" d="M2487.2-569.1
			c-68.6,28.9-269,113-411.5,173.4S1773.2-272.4,1632-206.3S1370.9-64.4,1228.6,1.2S919.7,113.1,778.3,187.5
			S519.5,369.2,380.2,447.8S85.6,590.3-57.6,659.3S-340,804.2-478.7,861.9s-342.6,119.8-411.1,143.7l622.1,1334.1l1000.9-557.4
			L3109.3,765L2487.2-569.1z"/>
		
			<linearGradient id="SVGID_00000120550986395169253050000013057311431472541844_" gradientUnits="userSpaceOnUse" x1="1316.6932" y1="12.3275" x2="1316.5933" y2="13.3275" gradientTransform="matrix(483 1035.8 -3376.8999 1574.6801 -591583.25 -1382862.25)">
			<stop  offset="0" style="stop-color:#5FD9D0"/>
			<stop  offset="0.5" style="stop-color:#5FD9BC"/>
		</linearGradient>
		<path style="fill:url(#SVGID_00000120550986395169253050000013057311431472541844_);" d="M2642.7-235.6
			c-98,45.7-396.5,189.9-588,274.4S1674,194.1,1493.4,271.3s-332.8,138.4-522.1,230.4S555,731,357.6,823.3s-388.9,146.1-570.9,232.1
			s-434.1,236.4-520.9,283.7l466.6,1000.6l1019.2-532.2L3109.3,765L2642.7-235.6z"/>
		
			<linearGradient id="SVGID_00000105422235165789735200000012256848311445762747_" gradientUnits="userSpaceOnUse" x1="1315.7007" y1="12.3271" x2="1315.6007" y2="13.3271" gradientTransform="matrix(327.73 702.83 -3376.8999 1574.6801 -386747.0938 -943594.8125)">
			<stop  offset="0" style="stop-color:#8BE4DD"/>
			<stop  offset="0.67" style="stop-color:#8BE4CE"/>
		</linearGradient>
		<path style="fill:url(#SVGID_00000105422235165789735200000012256848311445762747_);" d="M2798.2,97.9
			c-86.1,37.2-351.5,150.3-516.7,223.2s-314,139-474.7,214.3s-327.2,161-489.5,237.4S991.5,924.5,832.6,994.2
			S511.3,1114.7,363.8,1191s-259.1,180.7-416.1,261s-438.6,183.8-526.3,220.6l311,667l679.4-346.1l184.1-104L3109.3,765L2798.2,97.9
			z"/>
		
			<linearGradient id="SVGID_00000135655634487863675700000009230508423148236206_" gradientUnits="userSpaceOnUse" x1="1312.9083" y1="12.3278" x2="1312.8083" y2="13.3278" gradientTransform="matrix(172.42 369.75 -3376.8999 1574.6801 -181853.1719 -504187.4375)">
			<stop  offset="0" style="stop-color:#B6EEEA"/>
			<stop  offset="0.83" style="stop-color:#B6EEE1"/>
		</linearGradient>
		<path style="fill:url(#SVGID_00000135655634487863675700000009230508423148236206_);" d="M2953.8,431.5
			c-97.6,50.1-395.6,217.6-585.6,300.6s-372.5,123.7-554.4,197.2s-352.7,151.4-537.3,243.9s-383.5,219.6-570.1,311
			s-361.4,150.1-549.6,237.1s-483.2,237.4-579.8,284.9l155.5,333.5l825.8-420L3109.3,765L2953.8,431.5z"/>
	</g>
</g>
<linearGradient id="SVGID_00000137847954899841666650000009069646348408842406_" gradientUnits="userSpaceOnUse" x1="412.4118" y1="1992.024" x2="412.4118" y2="1992.024">
	<stop  offset="0" style="stop-color:#B6EEEA"/>
	<stop  offset="0.83" style="stop-color:#B6EEE1"/>
</linearGradient>
<path style="fill:url(#SVGID_00000137847954899841666650000009069646348408842406_);" d="M412.4,1992"/>
</svg>
