<svg xmlns="http://www.w3.org/2000/svg" version="1.1" xmlns:xlink="http://www.w3.org/1999/xlink" xmlns:svgjs="http://svgjs.dev/svgjs" viewBox="0 0 1920 1080" class="overflow-hidden rounded-md drop-shadow-lg transition duration-300" style="overflow: hidden; height: 85vh;"><rect width="1920" height="1080" fill="#1d7b74"/><g clip-path="url(&quot;#SvgjsClipPath3228&quot;)"><g transform="matrix(0.48601100100180433,1.0422539550921472,-1.0422539550921472,0.48601100100180433,1050.4548714402727,-711.2654671577311)"><path d="M0,-1080C-1.0345871308480235,-1008.5757967449956,-8.688629132833777,-809.8411643832336,-6.207522785088141,-651.4547804699737C-3.7264164373425053,-493.06839655671376,16.167179782188445,-293.4620165485543,14.886638086473816,-129.68169652044054C13.606096390759188,34.09862350767324,-8.539165019933357,182.52406173570637,-13.890772959375916,331.22713969870904C-19.242380898818475,479.9302176617117,-21.005481852574853,617.9591771207423,-17.223009550181533,762.5367712575754C-13.440537247788212,907.1143653944085,9.676925741942423,1038.5032233224006,8.804060854984009,1198.6927045197078C7.931195968025594,1358.882185717015,-20.992855396101355,1563.455775861371,-22.460198871932022,1723.6736584414195C-23.92754234776269,1883.8915410214681,-3.743366478655337,2087.2789430735697,0,2160L 1920 2160 L 1920 -1080 Z" fill="url(&quot;#SvgjsLinearGradient3222&quot;)"/><path d="M320,-1080C320.79338342343146,-1000.906927769549,325.8457643081184,-764.3085764991358,324.76030054058873,-605.4415666172945C323.67483677305904,-446.57455673545314,318.55007001470756,-276.6597121950997,313.48721739482176,-126.79794070895201C308.42436477493595,23.063830777195648,291.38469207180424,148.79905406888824,294.38318482127386,293.7290622995915C297.3816775707435,438.6590705302947,324.38584787072824,588.4810677787927,331.4781738916394,742.7821086752673C338.5704999125506,897.0831495717418,340.9165009991755,1065.164706213088,336.9371409467408,1219.5353076784388C332.95778089430604,1373.9059091437896,310.4248704014876,1512.2616020804453,307.60201357703085,1669.0057174673723C304.77915675257407,1825.7498328542993,317.93366892950513,2078.1676195778955,320,2160L 1920 2160 L 1920 -1080 Z" fill="url(&quot;#SvgjsLinearGradient3223&quot;)"/><path d="M640,-1080C637.5748425870249,-1015.3228449342918,630.1719948539495,-826.4880396220591,625.4490555221493,-691.9370696057507C620.726116190349,-557.3860995894423,611.4140634178574,-408.25791679901255,611.6623640091984,-272.69417990214964C611.9106646005395,-137.13044300528674,627.5000780922941,-14.805974924771846,626.9388590701953,121.4453517754267C626.3776400480966,257.6966784756253,601.5992986208627,406.0178134831356,608.295049876606,544.8137802990416C614.9908011323492,683.6097471149476,656.3349601216287,815.5312464952837,667.1133666046549,954.2211526708625C677.891773087681,1092.9110588464414,671.1823959552225,1238.7840197272694,672.9654887747628,1376.9532173525147C674.748581594303,1515.12241497776,683.3061716510235,1652.7285413144205,677.8119235218963,1783.2363384223347C672.3176753927692,1913.744135530249,646.3019872536494,2097.2060564037224,640,2160L 1920 2160 L 1920 -1080 Z" fill="url(&quot;#SvgjsLinearGradient3224&quot;)"/><path d="M960,-1080C960.0206170443848,-985.956864633527,963.9346801735924,-697.742689089955,960.1237022663094,-515.7411878011618C956.3127243590263,-333.7396865123686,942.6812627559805,-158.6365816418314,937.1341325563021,12.009007732758867C931.5870023566238,182.65459710734916,923.9073068495495,325.12954176092114,926.8409210682396,508.13234844638004C929.7745352869297,691.1351551318389,954.569409962194,920.5082195867127,954.7358178684427,1110.0258478455123C954.9022257746915,1299.543476104312,926.9620048171391,1470.2424259734298,927.839368505732,1645.2381179991778C928.7167321943248,1820.2338100249258,954.6398947509554,2074.206352999863,960,2160L 1920 2160 L 1920 -1080 Z" fill="url(&quot;#SvgjsLinearGradient3225&quot;)"/><path d="M1280,-1080C1277.6686102034537,-998.4594113064134,1269.266467618169,-747.7687567892178,1266.0116612207225,-590.7564678384799C1262.7568548232762,-433.744178887742,1260.1928025797745,-292.24261666300436,1260.4711616153218,-137.92626629557242C1260.749520650869,16.39008407185952,1267.0906428851636,179.07393477410974,1267.6818154340067,335.14163436611165C1268.2729879828498,491.2093339581136,1267.5033001989125,647.6314424055473,1264.0181969083799,798.479931256439C1260.5330936178473,949.3284201073308,1240.8477498691018,1095.957641645022,1246.7711956908115,1240.232567471462C1252.6946415125212,1384.507493297902,1294.0207377871075,1510.8349141269891,1299.5588718386389,1664.1294862150787C1305.0970058901703,1817.4240583031683,1283.2598119731065,2077.35491436918,1280,2160L 1920 2160 L 1920 -1080 Z" fill="url(&quot;#SvgjsLinearGradient3226&quot;)"/><path d="M1600,-1080C1603.6167179861409,-984.6716176197756,1626.1370797570944,-688.2598262533221,1621.700307916845,-508.0297057186532C1617.2635360765958,-327.7995851839843,1582.3017389651122,-169.03801557394576,1573.3793689585048,1.3807232080133218C1564.4569989518973,171.79946198997243,1563.1071818093926,335.03937576905764,1568.1660878772007,514.4827269731013C1573.2249939450087,693.926078177145,1600.328732979631,897.398402515786,1603.7328053653528,1078.040830432275C1607.1368777510745,1258.6832583487642,1589.2126564190903,1418.0107662107484,1588.5905221915316,1598.3372944720359C1587.9683879639729,1778.6638227333233,1598.0984203652552,2066.3895490786726,1600,2160L 1920 2160 L 1920 -1080 Z" fill="url(&quot;#SvgjsLinearGradient3227&quot;)"/></g></g><defs><linearGradient x1="0.1" y1="0" x2="0" y2="1" id="SvgjsLinearGradient3222"><stop stop-color="#1d7b74" offset="0"/><stop stop-color="#1d7b64" offset="0"/></linearGradient><linearGradient x1="0.1" y1="0" x2="0" y2="1" id="SvgjsLinearGradient3223"><stop stop-color="#27a69d" offset="0"/><stop stop-color="#27a688" offset="0.16666666666666666"/></linearGradient><linearGradient x1="0.1" y1="0" x2="0" y2="1" id="SvgjsLinearGradient3224"><stop stop-color="#34cfc4" offset="0"/><stop stop-color="#34cfaa" offset="0.3333333333333333"/></linearGradient><linearGradient x1="0.1" y1="0" x2="0" y2="1" id="SvgjsLinearGradient3225"><stop stop-color="#5fd9d0" offset="0"/><stop stop-color="#5fd9bc" offset="0.5"/></linearGradient><linearGradient x1="0.1" y1="0" x2="0" y2="1" id="SvgjsLinearGradient3226"><stop stop-color="#8be4dd" offset="0"/><stop stop-color="#8be4ce" offset="0.6666666666666666"/></linearGradient><linearGradient x1="0.1" y1="0" x2="0" y2="1" id="SvgjsLinearGradient3227"><stop stop-color="#b6eeea" offset="0"/><stop stop-color="#b6eee1" offset="0.8333333333333334"/></linearGradient><clipPath id="SvgjsClipPath3228"><rect width="1920" height="1080"/></clipPath></defs></svg>